<svg xmlns="http://www.w3.org/2000/svg" width="50.604" height="46.111" viewBox="0 0 50.604 46.111"><g transform="translate(13.326 13.945)"><path d="M1479.6,2637.98h11.916a1.131,1.131,0,0,0,0-2.26H1479.6a1.131,1.131,0,0,0,0,2.26Z" transform="translate(-1478.452 -2615.501)" fill="#e13f50"/><path d="M1496.965,2641.738H1479.6a1.131,1.131,0,0,0,0,2.261h17.361a1.131,1.131,0,0,0,0-2.261Z" transform="translate(-1478.452 -2617.312)" fill="#e13f50"/><path d="M1496.938,2606.807h-17.424a1.131,1.131,0,0,0,0,2.261h17.424a1.131,1.131,0,0,0,0-2.261Z" transform="translate(-1478.425 -2606.807)" fill="#e13f50"/><path d="M1496.938,2621.526h-17.424a1.131,1.131,0,0,0,0,2.261h17.424a1.131,1.131,0,0,0,0-2.261Z" transform="translate(-1478.425 -2611.233)" fill="#e13f50"/><path d="M1496.938,2627.544h-17.424a1.131,1.131,0,0,0,0,2.261h17.424a1.131,1.131,0,0,0,0-2.261Z" transform="translate(-1478.425 -2613.043)" fill="#e13f50"/><path d="M1479.667,2615.657h13.2a1.131,1.131,0,0,0,0-2.26h-13.2a1.131,1.131,0,0,0,0,2.26Z" transform="translate(-1478.471 -2608.789)" fill="#e13f50"/></g><g transform="translate(45.13 9.55)"><path d="M1525.6,2647.76c.418,0,1.133-2.436,1.557-5.272h-3.114C1524.471,2645.324,1525.185,2647.76,1525.6,2647.76Z" transform="translate(-1523.949 -2613.142)" fill="#455b65"/><path d="M1529.955,2609.328v.643a.844.844,0,0,1,.626.807v5.765a.31.31,0,0,0,.619,0v-5.765A1.473,1.473,0,0,0,1529.955,2609.328Z" transform="translate(-1525.726 -2603.17)" fill="#455b65"/><path d="M1526.571,2601.043a.521.521,0,1,1-.521-.521A.521.521,0,0,1,1526.571,2601.043Z" transform="translate(-1524.395 -2600.521)" fill="#455b65"/><path d="M1527.215,2605.33c0-.186,0-.368,0-.385a1.655,1.655,0,0,0-3.31,0v.385Z" transform="translate(-1523.907 -2601.354)" fill="#455b65"/><rect width="3.198" height="22.952" transform="translate(0.056 5.186)" fill="#455b65"/></g><path d="M1484.884,2599.827a1.616,1.616,0,1,1-1.616-1.615A1.616,1.616,0,0,1,1484.884,2599.827Z" transform="translate(-1466.07 -2590.277)" fill="#455b65"/><path d="M1497.82,2599.114h-14.228a3.3,3.3,0,0,1,.164.985v.015a1.341,1.341,0,0,0,1.314,1.394h12.75a.509.509,0,0,1,.509.509v31.74a.509.509,0,0,1-.509.509h-22.8a.509.509,0,0,1-.509-.509v-31.741a.508.508,0,0,1,.509-.508h.712a1.34,1.34,0,0,0,1.313-1.394v-.015a3.306,3.306,0,0,1,.165-.985h-2.19a2.9,2.9,0,0,0-2.9,2.9v31.741a2.9,2.9,0,0,0,2.9,2.9h22.8a2.9,2.9,0,0,0,2.9-2.9v-31.74A2.9,2.9,0,0,0,1497.82,2599.114Z" transform="translate(-1463.202 -2590.549)" fill="#455b65"/><g transform="translate(20.457 4.729)"><path d="M1493.352,2594.846h-4.12a.609.609,0,1,1,0-1.218h4.12a.609.609,0,0,1,0,1.218Z" transform="translate(-1488.623 -2593.627)" fill="#e13f50"/></g><path d="M1511.184,2588.925h-1.45v-1.451a.609.609,0,0,0-1.219,0v1.451h-1.45a.609.609,0,1,0,0,1.218h1.45v1.45a.609.609,0,1,0,1.219,0v-1.45h1.45a.609.609,0,1,0,0-1.218Z" transform="translate(-1473.528 -2586.865)" fill="#e13f50"/><path d="M1462.3,2632.568l1.026-1.026a.609.609,0,0,0-.862-.862l-1.026,1.026-1.026-1.026a.609.609,0,0,0-.861.862l1.026,1.026-1.026,1.026a.609.609,0,0,0,.861.861l1.026-1.026,1.026,1.026a.609.609,0,1,0,.862-.861Z" transform="translate(-1459.368 -2599.988)" fill="#e13f50"/></svg>