<svg xmlns="http://www.w3.org/2000/svg" width="55.315" height="42.319" viewBox="0 0 55.315 42.319"><g transform="translate(2.541 37.937)"><path d="M1655.72,2876.657h-49.873a1.27,1.27,0,0,1,0-2.541h49.873a1.27,1.27,0,0,1,0,2.541Z" transform="translate(-1604.577 -2874.117)" fill="#455b65"/></g><g transform="translate(0 34.698)"><circle cx="3.811" cy="3.811" r="3.811" fill="#48af9e"/></g><path d="M1629.711,2841.973a3.317,3.317,0,1,0,3.317,3.317A3.321,3.321,0,0,0,1629.711,2841.973Z" transform="translate(-1608.597 -2826.513)" fill="#455b65"/><g transform="translate(30.171 33.738)"><path d="M1648.866,2869.343h-4.16a.615.615,0,0,1,0-1.231h4.16a.615.615,0,0,1,0,1.231Z" transform="translate(-1644.091 -2868.112)" fill="#455b65"/></g><g transform="translate(52.052 18.777)"><path d="M1678.644,2848.349a1.632,1.632,0,1,1-1.631-1.632A1.631,1.631,0,0,1,1678.644,2848.349Z" transform="translate(-1675.381 -2846.717)" fill="#455b65"/></g><g transform="translate(18.816 5.627)"><circle cx="1.632" cy="1.632" r="1.632" fill="#455b65"/></g><g transform="translate(41.683 13.019)"><path d="M1663.816,2840.114a1.632,1.632,0,1,1-1.631-1.631A1.631,1.631,0,0,1,1663.816,2840.114Z" transform="translate(-1660.553 -2838.483)" fill="#48af9e"/></g><g transform="translate(6.143 4.864)"><path d="M1671,2827.023a.8.8,0,0,0-.886-.121l-7.528,3.682a.814.814,0,0,0-.45.789.806.806,0,0,0,.557.709l1.178.384a1.659,1.659,0,0,0-.311,1.1,1.866,1.866,0,0,0,.668,1.267,1.734,1.734,0,0,0,2.354,0l.543,1.113a.806.806,0,0,0,.727.456.514.514,0,0,0,.057,0,.8.8,0,0,0,.713-.557l2.615-7.957A.808.808,0,0,0,1671,2827.023Z" transform="translate(-1625.488 -2826.82)" fill="#455b65"/><path d="M1645.286,2843.113a1.838,1.838,0,0,0-1.284-.425,1.649,1.649,0,0,0-1.14.566l-6.887,7.91-11.568-8.064-14.231,14.894a1.8,1.8,0,0,0,1.362,2.994,1.771,1.771,0,0,0,1.336-.593l12.113-12.488,11.579,8.07,9.017-10.352a1.643,1.643,0,0,0,.4-1.211,1.8,1.8,0,0,0-.615-1.223Z" transform="translate(-1609.729 -2831.591)" fill="#455b65"/></g><path d="M1646.26,2853.511a3.316,3.316,0,1,0,3.317,3.315A3.319,3.319,0,0,0,1646.26,2853.511Z" transform="translate(-1613.574 -2829.983)" fill="#48af9e"/><g transform="translate(1.6 10.628)"><path d="M1609.4,2837.75h-1.892v-1.892a.794.794,0,1,0-1.589,0v1.892h-1.892a.794.794,0,0,0,0,1.589h1.892v1.892a.794.794,0,1,0,1.589,0v-1.892h1.892a.794.794,0,1,0,0-1.589Z" transform="translate(-1603.232 -2835.064)" fill="#48af9e"/></g><g transform="translate(35.562)"><path d="M1656.576,2821.945h-1.466v-1.464a.615.615,0,1,0-1.23,0v1.464h-1.465a.615.615,0,1,0,0,1.231h1.465v1.465a.615.615,0,1,0,1.23,0v-1.465h1.466a.615.615,0,0,0,0-1.231Z" transform="translate(-1651.8 -2819.865)" fill="#48af9e"/></g></svg>