<svg xmlns="http://www.w3.org/2000/svg" width="22.789" height="19.533" viewBox="0 0 22.789 19.533">
  <g id="broken-link" transform="translate(0 -36.547)">
    <g id="Group_259" data-name="Group 259" transform="translate(0 36.547)">
      <path id="Path_1218" data-name="Path 1218" d="M17.5,82.857h-.814a.392.392,0,0,0-.407.407v4.069a2.04,2.04,0,0,1-2.035,2.035H3.662a1.96,1.96,0,0,1-1.437-.6,1.959,1.959,0,0,1-.6-1.437V76.752a1.959,1.959,0,0,1,.6-1.437,1.959,1.959,0,0,1,1.437-.6h8.953a.392.392,0,0,0,.407-.407V73.5a.391.391,0,0,0-.407-.407H3.662a3.528,3.528,0,0,0-2.588,1.075A3.528,3.528,0,0,0,0,76.752V87.333a3.527,3.527,0,0,0,1.074,2.588A3.528,3.528,0,0,0,3.662,91H14.243a3.669,3.669,0,0,0,3.663-3.662V83.264a.392.392,0,0,0-.407-.407Z" transform="translate(0 -71.462)"/>
      <path id="Path_1219" data-name="Path 1219" d="M209.4,36.789a.783.783,0,0,0-.572-.242h-6.511a.809.809,0,0,0-.572,1.386l2.238,2.238L195.7,48.463a.4.4,0,0,0,0,.585l1.45,1.45a.4.4,0,0,0,.585,0l8.291-8.291,2.238,2.238a.814.814,0,0,0,1.386-.572V37.361A.782.782,0,0,0,209.4,36.789Z" transform="translate(-186.857 -36.547)"/>
    </g>
  </g>
</svg>
