<svg xmlns="http://www.w3.org/2000/svg" width="47.781" height="56.865" viewBox="0 0 47.781 56.865"><g transform="translate(-872.019 -292.417)"><g transform="translate(872.019 292.731)"><path d="M1060.881,2883.654h-.231a2.176,2.176,0,0,0-2.173,2.175v5.083h4.577v-5.083A2.176,2.176,0,0,0,1060.881,2883.654Zm1.3,6.38h-2.821v-4.205a1.3,1.3,0,0,1,1.3-1.3h.231a1.3,1.3,0,0,1,1.3,1.3Z" transform="translate(-1050.173 -2848.037)" fill="#455b65"/><path d="M1069.318,2879.365h-.231a2.176,2.176,0,0,0-2.173,2.174v8.083h4.577v-8.083A2.177,2.177,0,0,0,1069.318,2879.365Zm1.3,9.379h-2.82v-7.2a1.3,1.3,0,0,1,1.294-1.3h.231a1.3,1.3,0,0,1,1.3,1.3Z" transform="translate(-1052.711 -2846.747)" fill="#e15d3f"/><path d="M1077.756,2875.1h-.232a2.177,2.177,0,0,0-2.173,2.173v11.065h4.578v-11.065A2.176,2.176,0,0,0,1077.756,2875.1Zm1.294,12.36h-2.821v-10.187a1.3,1.3,0,0,1,1.294-1.294h.232a1.3,1.3,0,0,1,1.294,1.294Z" transform="translate(-1055.248 -2845.466)" fill="#455b65"/><path d="M1086.193,2870.656h-.231a2.176,2.176,0,0,0-2.173,2.173V2887h4.577v-14.174A2.176,2.176,0,0,0,1086.193,2870.656Zm1.295,15.469h-2.821v-13.3a1.3,1.3,0,0,1,1.3-1.295h.231a1.3,1.3,0,0,1,1.295,1.295Z" transform="translate(-1057.785 -2844.129)" fill="#e15d3f"/><path d="M1083.681,2859.36h-15.413a6.249,6.249,0,0,0,.917-3.224c0-4.422-4.932-8.02-10.994-8.02s-10.994,3.6-10.994,8.02a6.213,6.213,0,0,0,.944,3.246,1.753,1.753,0,0,0-1.538,1.735v21.956a1.759,1.759,0,0,0,1.757,1.757h12.164v5.393h-2.481a1.759,1.759,0,0,0-1.757,1.757v.164a1.759,1.759,0,0,0,1.757,1.756H1074a1.759,1.759,0,0,0,1.757-1.756v-.164a1.759,1.759,0,0,0-1.757-1.757h-2.481v-5.393h12.165a1.759,1.759,0,0,0,1.757-1.757v-21.956A1.759,1.759,0,0,0,1083.681,2859.36ZM1058.19,2849c5.578,0,10.116,3.2,10.116,7.141,0,2.492-1.8,4.767-4.825,6.083l-.3.132.394,2.933-3.156-2.181-.171.026a14.164,14.164,0,0,1-2.053.148c-5.578,0-10.115-3.2-10.115-7.141S1052.612,2849,1058.19,2849Zm-7.658,13.638h1.226a13.833,13.833,0,0,0,6.432,1.522,15.145,15.145,0,0,0,2.008-.134l4.509,3.115-.572-4.249q.259-.123.507-.254h16.865v18.923h-30.976Zm24.344,29.346v.164a.879.879,0,0,1-.878.878h-15.956a.879.879,0,0,1-.878-.878v-.164a.879.879,0,0,1,.878-.878H1074A.879.879,0,0,1,1074.876,2891.98Zm-4.238-1.757H1061.4v-5.393h9.237Zm13.92-7.15a.879.879,0,0,1-.878.878h-35.322a.879.879,0,0,1-.878-.878v-21.956a.881.881,0,0,1,.878-.879h.39a8.975,8.975,0,0,0,1.608,1.517h-.7v20.68h32.734v-20.68h-16.341a8.8,8.8,0,0,0,1.606-1.517h16.03a.88.88,0,0,1,.878.879Z" transform="translate(-1046.602 -2837.35)" fill="#455b65"/><g transform="translate(23.432)"><path d="M1084.77,2844.694a6.1,6.1,0,0,0-3.759.062c-.071.024-.141.078-.208.075-.208-.012-.489.026-.6-.09a.668.668,0,0,1-.042-.595,6.807,6.807,0,0,1,6.873-4.009c.347.037.466-.094.594-.362a12.216,12.216,0,0,1,6.823-6.321,10.539,10.539,0,0,1,5.557-.6.743.743,0,0,1,.718.738,11.279,11.279,0,0,1-1.931,8.082,12.015,12.015,0,0,1-5.023,4.285.493.493,0,0,0-.334.612,6.768,6.768,0,0,1-3.95,6.817.8.8,0,0,1-.677-.044c-.113-.087-.1-.441-.034-.636a6.044,6.044,0,0,0,.214-3.547c-.028-.11-.074-.214-.1-.3-.608.4-1.171.81-1.777,1.144a6.013,6.013,0,0,1-3.4.676c-.635-.045-.75-.178-.8-.822a6.4,6.4,0,0,1,1.6-4.813C1084.586,2844.951,1084.657,2844.845,1084.77,2844.694Zm5.247,7.337c.152-.112.3-.2.429-.318a5.82,5.82,0,0,0,2.033-5.425c-.1-.7-.082-.731.555-1a11.223,11.223,0,0,0,4.831-3.9,10.4,10.4,0,0,0,2.017-7.127c-.032-.346-.106-.564-.509-.551a16.914,16.914,0,0,0-2.482.069,11.2,11.2,0,0,0-8.621,6.842.7.7,0,0,1-.883.5,5.8,5.8,0,0,0-3.915.68,5.3,5.3,0,0,0-1.947,1.806c.222-.016.366-.018.509-.037a7.209,7.209,0,0,1,4.817,1.055,1.1,1.1,0,0,1,.643,1.023c-.014.367.188.42.5.462a1.185,1.185,0,0,1,.726.315,6.06,6.06,0,0,1,1.289,3.224C1090.072,2850.418,1090.017,2851.2,1090.017,2852.031Zm-4.308-6.944c-.147.165-.3.329-.441.5a5.687,5.687,0,0,0-1.484,3.766c0,.3.078.454.4.422.354-.034.713-.026,1.062-.087a6.173,6.173,0,0,0,3.239-1.822c-.16-.534-.432-.927-1.07-.916-.5.009-.79-.231-.78-.751A1.067,1.067,0,0,0,1085.709,2845.087Z" transform="translate(-1080.111 -2832.72)" fill="#e15d3f"/><path d="M1098.281,2839.789a2.38,2.38,0,0,1,4.76.04,2.414,2.414,0,0,1-2.406,2.368A2.381,2.381,0,0,1,1098.281,2839.789Zm2.413-1.427a1.43,1.43,0,0,0-1.487,1.437,1.45,1.45,0,0,0,1.436,1.458,1.473,1.473,0,0,0,1.475-1.428A1.456,1.456,0,0,0,1100.694,2838.361Z" transform="translate(-1085.575 -2834.141)" fill="#e15d3f"/></g><path d="M1058.9,2846.14c6.545,0,11.87,4.3,11.87,9.591,0,3.348-2.117,6.4-5.662,8.17l-.357.177.463,3.939-3.7-2.929-.2.034a14.539,14.539,0,0,1-2.41.2c-6.545,0-11.869-4.3-11.869-9.591S1052.35,2846.14,1058.9,2846.14Z" transform="translate(-1046.73 -2836.755)" fill="#e15d3f"/></g><g transform="translate(894.364 318.358)"><g transform="translate(0)"><path d="M1082.352,2872.046l1.33-1.33a.79.79,0,0,0-1.117-1.117l-1.331,1.33-1.33-1.33a.79.79,0,0,0-1.117,1.117l1.331,1.33-1.331,1.33a.79.79,0,1,0,1.117,1.117l1.33-1.331,1.331,1.331a.79.79,0,1,0,1.117-1.117Z" transform="translate(-1078.556 -2869.367)" fill="#455b65"/></g></g><g transform="translate(911.594 307.113)"><g transform="translate(0)"><path d="M1106.992,2855.965l1.331-1.33a.79.79,0,0,0-1.117-1.118l-1.331,1.33-1.33-1.33a.79.79,0,0,0-1.117,1.118l1.33,1.33-1.33,1.33a.79.79,0,1,0,1.117,1.117l1.33-1.33,1.331,1.33a.79.79,0,0,0,1.117-1.117Z" transform="translate(-1103.197 -2853.286)" fill="#455b65"/></g></g><g transform="translate(915.348 292.417)"><g transform="translate(0)"><path d="M1113.017,2834.5a2.226,2.226,0,1,1-2.226-2.226A2.226,2.226,0,0,1,1113.017,2834.5Z" transform="translate(-1108.565 -2832.27)" fill="#e15d3f"/></g></g></g></svg>