<svg id="Group_49" data-name="Group 49" xmlns="http://www.w3.org/2000/svg" width="171.023" height="60.919" viewBox="0 0 171.023 60.919">
  <path id="Path_52" data-name="Path 52" d="M110.938,36.566c.021-.116-.763,4.017-.763,4.017l6.423-8.331-4.368-3.7a19.181,19.181,0,0,1-.488,3.157,39.738,39.738,0,0,0-5.685,2.5v5.327a50.445,50.445,0,0,1,4.881-2.971" transform="translate(-86.11 -28.553)" fill="#f79421"/>
  <path id="Path_53" data-name="Path 53" d="M93.667,43.585a29.218,29.218,0,0,1,6.2-4.5v5.406a44.792,44.792,0,0,0-6.2,5.652Z" transform="translate(-81.287 -32.651)" fill="#fff"/>
  <path id="Path_54" data-name="Path 54" d="M113.251,85.461a1.045,1.045,0,0,0,1.448.306l.225-.148a1.046,1.046,0,0,0,.306-1.447l-7.383-11.348a1.045,1.045,0,0,0-1.448-.307l-.225.146a1.049,1.049,0,0,0-.308,1.45Z" transform="translate(-85.97 -45.602)" fill="#fff"/>
  <path id="Path_55" data-name="Path 55" d="M107.681,88.453a1.047,1.047,0,0,0,1.448.307l.226-.148a1.045,1.045,0,0,0,.307-1.448l-5.8-8.907a1.045,1.045,0,0,0-1.448-.307l-.226.147a1.048,1.048,0,0,0-.307,1.448Z" transform="translate(-84.42 -47.717)" fill="#f79421"/>
  <path id="Path_56" data-name="Path 56" d="M102.112,91.447a1.049,1.049,0,0,0,1.451.305l.223-.146a1.048,1.048,0,0,0,.307-1.45L99.885,83.69a1.049,1.049,0,0,0-1.449-.308l-.225.149A1.049,1.049,0,0,0,97.9,84.98Z" transform="translate(-82.871 -49.832)" fill="#f79421"/>
  <path id="Path_57" data-name="Path 57" d="M96.544,94.441a1.047,1.047,0,0,0,1.447.307l.225-.148a1.045,1.045,0,0,0,.307-1.447L95.9,89.124a1.051,1.051,0,0,0-1.45-.307l-.224.148a1.046,1.046,0,0,0-.307,1.448Z" transform="translate(-81.321 -51.948)" fill="#fff"/>
  <path id="Path_58" data-name="Path 58" d="M114.541,57.1a12.651,12.651,0,0,0-5.292,2.244,13.323,13.323,0,0,1,15.478,20.125A12.7,12.7,0,0,0,114.541,57.1" transform="translate(-87.353 -39.591)" fill="#f79421"/>
  <path id="Path_59" data-name="Path 59" d="M118.929,83.883l-12.073,3.082,3.375,1.289c-.007.005-.011.013-.02.015-8.929,7.153-19.337,8.872-26.3,3.833-9.164-6.641-9.852-22.356-.1-35.839.2-.275.406-.54.612-.808V48.537a30.61,30.61,0,0,0-3.917,4.652C71.589,66.381,69.844,85.14,82.35,93.268c9.657,6.274,23.425,4.909,34.493-2.489l4.515,1.724Z" transform="translate(-73.395 -36.333)" fill="#f79421"/>
  <path id="Path_60" data-name="Path 60" d="M167.914,68.737h-.564a2.244,2.244,0,0,1-2.335-1.786,2,2,0,0,1-1.872.942c-1.248,0-2.178-1.283-2.178-2.91,0-1.737.93-2.961,2.324-2.961h2.593v3.926c0,1.224.575,1.945,1.566,1.945h.466ZM165,64.823V62.658h-1.554c-.966,0-1.625.991-1.625,2.275,0,1.247.647,2.288,1.6,2.288,1.028,0,1.554-.793,1.578-2.4m-1.284-3.694h-.868v-1.04h.868Zm1.6,0h-.87v-1.04h.87Z" transform="translate(-107.485 -40.83)" fill="#fff"/>
  <path id="Path_61" data-name="Path 61" d="M176.2,70.71h-4.22v-.845h.783a1.059,1.059,0,0,0,1.041-.5,2.744,2.744,0,0,0,.183-1.187V65.156h.857v3.4a3.039,3.039,0,0,1-.233,1.3h1.59Zm-2.948,1.871h-.868V71.543h.868Zm1.6,0h-.869V71.543h.869Z" transform="translate(-111.773 -42.802)" fill="#fff"/>
  <path id="Path_62" data-name="Path 62" d="M186.35,71.4h-1.872a2.3,2.3,0,0,1-2.055,1.065,2.328,2.328,0,0,1-2.1-1.065h-1.81v-.856h1.442a3.735,3.735,0,0,1-.1-.844,2.95,2.95,0,0,1,.685-1.994,2.41,2.41,0,0,1,1.9-.783,2.368,2.368,0,0,1,1.883.795,2.936,2.936,0,0,1,.649,1.97,3.2,3.2,0,0,1-.111.857h1.493Zm-2.385-1.8a2.349,2.349,0,0,0-.332-1.32,1.27,1.27,0,0,0-1.162-.6,1.418,1.418,0,0,0-1.26.65,2.524,2.524,0,0,0-.343,1.417,2.355,2.355,0,0,0,.343,1.346,1.382,1.382,0,0,0,1.211.6q1.541,0,1.542-2.094" transform="translate(-114.315 -43.489)" fill="#fff"/>
  <path id="Path_63" data-name="Path 63" d="M197.691,66.709a2.545,2.545,0,0,1-2.544,2.777H190.8V68.63h2.385a2.906,2.906,0,0,1-.612-1.908,2.553,2.553,0,0,1,2.581-2.776,2.488,2.488,0,0,1,2.533,2.764m-.944-.084c0-1.224-.55-1.97-1.552-1.97-1.089,0-1.65.82-1.65,2.117,0,1.223.6,2.006,1.6,2.006,1.063,0,1.6-.721,1.6-2.152m-1.967-3.573h-.868v-1.04h.868Zm1.6,0h-.867v-1.04h.867Z" transform="translate(-119.101 -41.578)" fill="#fff"/>
  <path id="Path_64" data-name="Path 64" d="M208.167,70.711h-2.1a2.354,2.354,0,0,1-2.484,2.006V71.9c1.137,0,1.714-.625,1.714-2.067V65.157h.856v4.7h2.018Z" transform="translate(-124.075 -42.803)" fill="#fff"/>
  <path id="Path_65" data-name="Path 65" d="M213.513,61.291v5.761c0,1.431-.6,2.153-1.8,2.153h-1.063v-.844h.783a1.042,1.042,0,0,0,1.039-.514,2.627,2.627,0,0,0,.183-1.174V61.291Z" transform="translate(-126.828 -41.298)" fill="#fff"/>
  <rect id="Rectangle_35" data-name="Rectangle 35" width="0.856" height="7.915" transform="translate(88.324 19.993)" fill="#fff"/>
  <path id="Path_66" data-name="Path 66" d="M225.564,66.856a4.609,4.609,0,0,0,.588,2.4,2.218,2.218,0,0,0,2.019,1.149,2.193,2.193,0,0,0,2.018-1.149,4.609,4.609,0,0,0,.574-2.4V61.289h.857v5.738a4.559,4.559,0,0,1-1.016,3.047,3.05,3.05,0,0,1-2.433,1.162,3.13,3.13,0,0,1-2.472-1.175,4.546,4.546,0,0,1-.989-3.034V65.853h.854Z" transform="translate(-132.301 -41.297)" fill="#fff"/>
  <path id="Path_67" data-name="Path 67" d="M241.451,69.206h-.968a1.509,1.509,0,0,1-1.111-.465,1.949,1.949,0,0,1-.527-1.479V61.291h.881v5.456a2.3,2.3,0,0,0,.245,1.21.933.933,0,0,0,.7.379,7.358,7.358,0,0,0,.784.013Z" transform="translate(-137.804 -41.298)" fill="#fff"/>
  <path id="Path_68" data-name="Path 68" d="M250.571,71.4H248.7a2.3,2.3,0,0,1-2.055,1.065,2.328,2.328,0,0,1-2.1-1.065h-1.81v-.856h1.443a3.67,3.67,0,0,1-.1-.844,2.941,2.941,0,0,1,.685-1.994,2.4,2.4,0,0,1,1.9-.783,2.369,2.369,0,0,1,1.884.795,2.935,2.935,0,0,1,.648,1.97,3.176,3.176,0,0,1-.111.857h1.493Zm-2.385-1.8a2.339,2.339,0,0,0-.331-1.32,1.268,1.268,0,0,0-1.162-.6,1.42,1.42,0,0,0-1.26.65,2.534,2.534,0,0,0-.343,1.417,2.364,2.364,0,0,0,.343,1.346,1.384,1.384,0,0,0,1.211.6q1.541,0,1.541-2.094" transform="translate(-139.316 -43.489)" fill="#fff"/>
  <path id="Path_69" data-name="Path 69" d="M261.415,70.7h-6.728v-.856h1.871a3.62,3.62,0,0,1,.233-3.83,2.43,2.43,0,0,1,2.018-.892,2.876,2.876,0,0,1,1.64.464,2.031,2.031,0,0,1,.942,1.407l-1.039.11a1.4,1.4,0,0,0-1.53-1.3,1.433,1.433,0,0,0-1.333.747,3.266,3.266,0,0,0-.332,1.577,2.369,2.369,0,0,0,.563,1.714h3.695Z" transform="translate(-143.971 -42.788)" fill="#fff"/>
  <path id="Path_70" data-name="Path 70" d="M269.543,58.889l-.5.048c-.049-.28-.2-.427-.451-.427-.332,0-.5.222-.5.662a.741.741,0,0,0,.124.44h1.309v.49h-2.337v-.49h.489a1.035,1.035,0,0,1-.085-.428.952.952,0,0,1,1-1.076.881.881,0,0,1,.952.782m3.425,1.163v5.761c0,1.431-.6,2.153-1.8,2.153h-3.536v-.844h1.994l-1.578-6.127h.93l1.541,6.127h.367c.87,0,1.224-.354,1.224-1.687V60.051Z" transform="translate(-148.835 -40.058)" fill="#fff"/>
  <rect id="Rectangle_36" data-name="Rectangle 36" width="0.855" height="7.915" transform="translate(125.772 19.993)" fill="#fff"/>
  <path id="Path_71" data-name="Path 71" d="M292.975,68.737h-.562a2.247,2.247,0,0,1-2.337-1.786,1.993,1.993,0,0,1-1.871.942c-1.246,0-2.177-1.283-2.177-2.91,0-1.737.93-2.961,2.323-2.961h2.6v3.926c0,1.224.572,1.945,1.564,1.945h.464Zm-2.91-3.914V62.658h-1.553c-.968,0-1.628.991-1.628,2.275,0,1.247.649,2.288,1.6,2.288,1.027,0,1.554-.793,1.579-2.4m-1.285-3.694h-.869v-1.04h.869Zm1.6,0h-.869v-1.04h.869Z" transform="translate(-156.172 -40.83)" fill="#fff"/>
  <path id="Path_72" data-name="Path 72" d="M301.262,69.486h-4.221v-.845h.783a1.057,1.057,0,0,0,1.04-.5,2.733,2.733,0,0,0,.183-1.187V63.932h.857v3.4a3.039,3.039,0,0,1-.233,1.3h1.591Zm-1.346-6.434h-.869v-1.04h.869Z" transform="translate(-160.459 -41.578)" fill="#fff"/>
  <path id="Path_73" data-name="Path 73" d="M313.41,69.486h-9.92V68.63h1.139c.867,0,1.3-.636,1.3-1.908v-2.2h.856v2.13a4.607,4.607,0,0,1,3.757-2.729c1.955,0,2.934,1.395,2.934,4.148,0,.427-.025.9-.062,1.418m-.845-.845q.038-.4.037-.77c0-1.9-.783-3.168-2.129-3.168-1.49,0-3.252,1.737-3.9,3.731v.208Zm-1.822-5.589h-.869v-1.04h.869Z" transform="translate(-162.97 -41.578)" fill="#fff"/>
  <path id="Path_74" data-name="Path 74" d="M325.2,69.206h-.967a1.511,1.511,0,0,1-1.113-.465,1.953,1.953,0,0,1-.525-1.479V61.291h.88v5.456a2.3,2.3,0,0,0,.245,1.21.932.932,0,0,0,.7.379,7.267,7.267,0,0,0,.783.013Z" transform="translate(-170.407 -41.298)" fill="#fff"/>
  <path id="Path_75" data-name="Path 75" d="M334.856,69.577v1.235h-8.478v-.856h7.438c.012-.159.025-.3.025-.44,0-2.067-1.09-3.253-3.01-3.253a2.5,2.5,0,0,0-2.3,1.21c-.122-.134-.366-.379-.745-.758a3.644,3.644,0,0,1,3.033-1.3,3.841,3.841,0,0,1,4.037,4.16" transform="translate(-171.88 -42.904)" fill="#fff"/>
  <path id="Path_76" data-name="Path 76" d="M147.788,82.062h2.694a4.763,4.763,0,0,1,1.706.249,2.011,2.011,0,0,1,.966.743,2.941,2.941,0,0,1,.43,1.253,13.94,13.94,0,0,1,.1,1.77,10.337,10.337,0,0,1-.126,1.731,2.782,2.782,0,0,1-.507,1.237,2.248,2.248,0,0,1-1.079.738,5.812,5.812,0,0,1-1.854.242h-2.328Zm.9,7.369h1.1a7.467,7.467,0,0,0,1.614-.139,1.47,1.47,0,0,0,.9-.551,2.418,2.418,0,0,0,.39-1.163,19.005,19.005,0,0,0,.084-1.976,8.674,8.674,0,0,0-.1-1.423,1.768,1.768,0,0,0-.409-.9,1.684,1.684,0,0,0-.882-.481,6.7,6.7,0,0,0-1.515-.138h-1.185Z" transform="translate(-102.356 -49.384)" fill="#fff"/>
  <path id="Path_77" data-name="Path 77" d="M147.788,82.062h2.694a4.763,4.763,0,0,1,1.706.249,2.011,2.011,0,0,1,.966.743,2.941,2.941,0,0,1,.43,1.253,13.94,13.94,0,0,1,.1,1.77,10.337,10.337,0,0,1-.126,1.731,2.782,2.782,0,0,1-.507,1.237,2.248,2.248,0,0,1-1.079.738,5.812,5.812,0,0,1-1.854.242h-2.328Zm.9,7.369h1.1a7.467,7.467,0,0,0,1.614-.139,1.47,1.47,0,0,0,.9-.551,2.418,2.418,0,0,0,.39-1.163,19.005,19.005,0,0,0,.084-1.976,8.674,8.674,0,0,0-.1-1.423,1.768,1.768,0,0,0-.409-.9,1.684,1.684,0,0,0-.882-.481,6.7,6.7,0,0,0-1.515-.138h-1.185Z" transform="translate(-102.356 -49.384)" fill="#fff"/>
  <path id="Path_78" data-name="Path 78" d="M160.606,82.06h1.042V82.9h-1.042Zm.1,2.394h.847v5.571H160.7Z" transform="translate(-107.346 -49.383)" fill="#fff"/>
  <path id="Path_79" data-name="Path 79" d="M160.606,82.06h1.042V82.9h-1.042Zm.1,2.394h.847v5.571H160.7Z" transform="translate(-107.346 -49.383)" fill="#fff"/>
  <path id="Path_80" data-name="Path 80" d="M168.978,85.9h.833c-.019.265-.031.476-.035.635s-.007.31-.007.457V91.68a2.967,2.967,0,0,1-.1.821,1.318,1.318,0,0,1-.39.613,1.871,1.871,0,0,1-.767.387,4.893,4.893,0,0,1-1.25.133,3.069,3.069,0,0,1-1.077-.16,1.742,1.742,0,0,1-.642-.4,1.222,1.222,0,0,1-.3-.507,1.172,1.172,0,0,1-.049-.481h.846a.77.77,0,0,0,.352.752,1.733,1.733,0,0,0,.986.263,2.553,2.553,0,0,0,.939-.132.863.863,0,0,0,.459-.42,1.746,1.746,0,0,0,.147-.733c0-.3.007-.656.007-1.075h-.028a1.6,1.6,0,0,1-.746.512,2.978,2.978,0,0,1-.974.16,2.541,2.541,0,0,1-1.2-.237,1.649,1.649,0,0,1-.655-.608,2.107,2.107,0,0,1-.274-.839,7.694,7.694,0,0,1-.057-.931c0-.323,0-.576.007-.757s.015-.331.028-.451a1.889,1.889,0,0,1,.064-.327c.028-.095.066-.217.112-.364a1.489,1.489,0,0,1,.487-.639,2.107,2.107,0,0,1,.607-.326,2.815,2.815,0,0,1,1.93.066,1.518,1.518,0,0,1,.727.58l.027.023Zm-1.65.43a1.271,1.271,0,0,0-1.3.806,2.327,2.327,0,0,0-.169.733c-.02.262-.029.494-.029.7q0,.431.021.85a2.058,2.058,0,0,0,.171.744,1.2,1.2,0,0,0,.458.525,1.649,1.649,0,0,0,.887.2,1.536,1.536,0,0,0,.861-.215,1.17,1.17,0,0,0,.423-.414,2.141,2.141,0,0,0,.134-.315,1.983,1.983,0,0,0,.078-.391c.018-.161.033-.367.042-.618s.015-.581.015-.992a1.768,1.768,0,0,0-.141-.744,1.5,1.5,0,0,0-.359-.5,1.347,1.347,0,0,0-.507-.281,1.967,1.967,0,0,0-.586-.089" transform="translate(-109.052 -50.838)" fill="#fff"/>
  <path id="Path_81" data-name="Path 81" d="M168.978,85.9h.833c-.019.265-.031.476-.035.635s-.007.31-.007.457V91.68a2.967,2.967,0,0,1-.1.821,1.318,1.318,0,0,1-.39.613,1.871,1.871,0,0,1-.767.387,4.893,4.893,0,0,1-1.25.133,3.069,3.069,0,0,1-1.077-.16,1.742,1.742,0,0,1-.642-.4,1.222,1.222,0,0,1-.3-.507,1.172,1.172,0,0,1-.049-.481h.846a.77.77,0,0,0,.352.752,1.733,1.733,0,0,0,.986.263,2.553,2.553,0,0,0,.939-.132.863.863,0,0,0,.459-.42,1.746,1.746,0,0,0,.147-.733c0-.3.007-.656.007-1.075h-.028a1.6,1.6,0,0,1-.746.512,2.978,2.978,0,0,1-.974.16,2.541,2.541,0,0,1-1.2-.237,1.649,1.649,0,0,1-.655-.608,2.107,2.107,0,0,1-.274-.839,7.694,7.694,0,0,1-.057-.931c0-.323,0-.576.007-.757s.015-.331.028-.451a1.889,1.889,0,0,1,.064-.327c.028-.095.066-.217.112-.364a1.489,1.489,0,0,1,.487-.639,2.107,2.107,0,0,1,.607-.326,2.815,2.815,0,0,1,1.93.066,1.518,1.518,0,0,1,.727.58l.027.023Zm-1.65.43a1.271,1.271,0,0,0-1.3.806,2.327,2.327,0,0,0-.169.733c-.02.262-.029.494-.029.7q0,.431.021.85a2.058,2.058,0,0,0,.171.744,1.2,1.2,0,0,0,.458.525,1.649,1.649,0,0,0,.887.2,1.536,1.536,0,0,0,.861-.215,1.17,1.17,0,0,0,.423-.414,2.141,2.141,0,0,0,.134-.315,1.983,1.983,0,0,0,.078-.391c.018-.161.033-.367.042-.618s.015-.581.015-.992a1.768,1.768,0,0,0-.141-.744,1.5,1.5,0,0,0-.359-.5,1.347,1.347,0,0,0-.507-.281,1.967,1.967,0,0,0-.586-.089" transform="translate(-109.052 -50.838)" fill="#fff"/>
  <path id="Path_82" data-name="Path 82" d="M175.979,82.06h1.042V82.9h-1.042Zm.1,2.394h.846v5.571h-.846Z" transform="translate(-113.33 -49.383)" fill="#fff"/>
  <path id="Path_83" data-name="Path 83" d="M175.979,82.06h1.042V82.9h-1.042Zm.1,2.394h.846v5.571h-.846Z" transform="translate(-113.33 -49.383)" fill="#fff"/>
  <path id="Path_84" data-name="Path 84" d="M179.763,85.6v-.531H180.9V83.92l.846-.288v1.433h1.437V85.6h-1.437v3.576a3.053,3.053,0,0,0,.027.452.636.636,0,0,0,.107.281.4.4,0,0,0,.233.145,1.824,1.824,0,0,0,.408.038c.14,0,.263,0,.366-.006a2.128,2.128,0,0,0,.295-.029v.575q-.379.033-.8.034a1.784,1.784,0,0,1-1.17-.282,1.026,1.026,0,0,1-.31-.8V85.6Z" transform="translate(-114.803 -49.995)" fill="#fff"/>
  <path id="Path_85" data-name="Path 85" d="M179.763,85.6v-.531H180.9V83.92l.846-.288v1.433h1.437V85.6h-1.437v3.576a3.053,3.053,0,0,0,.027.452.636.636,0,0,0,.107.281.4.4,0,0,0,.233.145,1.824,1.824,0,0,0,.408.038c.14,0,.263,0,.366-.006a2.128,2.128,0,0,0,.295-.029v.575q-.379.033-.8.034a1.784,1.784,0,0,1-1.17-.282,1.026,1.026,0,0,1-.31-.8V85.6Z" transform="translate(-114.803 -49.995)" fill="#fff"/>
  <path id="Path_86" data-name="Path 86" d="M190.694,90.8h-.028a2.5,2.5,0,0,1-2.016.8,2.085,2.085,0,0,1-1.46-.459,1.7,1.7,0,0,1-.308-1.99,1.486,1.486,0,0,1,.514-.518,2.546,2.546,0,0,1,.733-.3,5.849,5.849,0,0,1,.846-.138c.293-.024.58-.041.867-.048s.552-.02.8-.034v-.464a1.45,1.45,0,0,0-.3-.966,1.47,1.47,0,0,0-1.142-.347,1.951,1.951,0,0,0-1,.234.776.776,0,0,0-.4.726h-.9a1.34,1.34,0,0,1,.226-.683,1.488,1.488,0,0,1,.522-.465,2.624,2.624,0,0,1,.741-.259,4.468,4.468,0,0,1,.881-.084c.178,0,.395.012.648.035a2.391,2.391,0,0,1,.727.176,1.5,1.5,0,0,1,.591.442,1.262,1.262,0,0,1,.247.828v2.8c0,.2,0,.4.009.608a6.609,6.609,0,0,0,.076.793h-.874Zm-.056-2.162c-.3.007-.63.016-.988.021a4.717,4.717,0,0,0-.994.122,1.807,1.807,0,0,0-.761.369.956.956,0,0,0-.3.768,1.155,1.155,0,0,0,.31.811,1.266,1.266,0,0,0,.972.337,1.994,1.994,0,0,0,.683-.117,1.87,1.87,0,0,0,.558-.315,1.582,1.582,0,0,0,.381-.453,1.082,1.082,0,0,0,.141-.529Z" transform="translate(-117.5 -50.838)" fill="#fff"/>
  <path id="Path_87" data-name="Path 87" d="M190.694,90.8h-.028a2.5,2.5,0,0,1-2.016.8,2.085,2.085,0,0,1-1.46-.459,1.7,1.7,0,0,1-.308-1.99,1.486,1.486,0,0,1,.514-.518,2.546,2.546,0,0,1,.733-.3,5.849,5.849,0,0,1,.846-.138c.293-.024.58-.041.867-.048s.552-.02.8-.034v-.464a1.45,1.45,0,0,0-.3-.966,1.47,1.47,0,0,0-1.142-.347,1.951,1.951,0,0,0-1,.234.776.776,0,0,0-.4.726h-.9a1.34,1.34,0,0,1,.226-.683,1.488,1.488,0,0,1,.522-.465,2.624,2.624,0,0,1,.741-.259,4.468,4.468,0,0,1,.881-.084c.178,0,.395.012.648.035a2.391,2.391,0,0,1,.727.176,1.5,1.5,0,0,1,.591.442,1.262,1.262,0,0,1,.247.828v2.8c0,.2,0,.4.009.608a6.609,6.609,0,0,0,.076.793h-.874Zm-.056-2.162c-.3.007-.63.016-.988.021a4.717,4.717,0,0,0-.994.122,1.807,1.807,0,0,0-.761.369.956.956,0,0,0-.3.768,1.155,1.155,0,0,0,.31.811,1.266,1.266,0,0,0,.972.337,1.994,1.994,0,0,0,.683-.117,1.87,1.87,0,0,0,.558-.315,1.582,1.582,0,0,0,.381-.453,1.082,1.082,0,0,0,.141-.529Z" transform="translate(-117.5 -50.838)" fill="#fff"/>
  <rect id="Rectangle_37" data-name="Rectangle 37" width="0.846" height="7.965" transform="translate(76.056 32.677)" fill="#fff"/>
  <rect id="Rectangle_38" data-name="Rectangle 38" width="0.846" height="7.965" transform="translate(76.056 32.677)" fill="#fff"/>
  <rect id="Rectangle_39" data-name="Rectangle 39" width="0.904" height="7.964" transform="translate(82.287 32.677)" fill="#fff"/>
  <rect id="Rectangle_40" data-name="Rectangle 40" width="0.904" height="7.964" transform="translate(82.287 32.677)" fill="#fff"/>
  <path id="Path_88" data-name="Path 88" d="M213.691,91.481h-.846V85.91h.846v.684h.028a2.509,2.509,0,0,1,.727-.573,2.075,2.075,0,0,1,.993-.223,2.648,2.648,0,0,1,1.051.173,1.452,1.452,0,0,1,.585.431,1.319,1.319,0,0,1,.254.568,3.284,3.284,0,0,1,.057.584v3.927h-.847V87.587a1.711,1.711,0,0,0-.064-.469.987.987,0,0,0-.219-.4,1.09,1.09,0,0,0-.407-.284,1.649,1.649,0,0,0-.622-.1,1.961,1.961,0,0,0-.557.084,1.306,1.306,0,0,0-.493.276,1.394,1.394,0,0,0-.353.511,2.057,2.057,0,0,0-.134.785Z" transform="translate(-127.682 -50.838)" fill="#fff"/>
  <path id="Path_89" data-name="Path 89" d="M213.691,91.481h-.846V85.91h.846v.684h.028a2.509,2.509,0,0,1,.727-.573,2.075,2.075,0,0,1,.993-.223,2.648,2.648,0,0,1,1.051.173,1.452,1.452,0,0,1,.585.431,1.319,1.319,0,0,1,.254.568,3.284,3.284,0,0,1,.057.584v3.927h-.847V87.587a1.711,1.711,0,0,0-.064-.469.987.987,0,0,0-.219-.4,1.09,1.09,0,0,0-.407-.284,1.649,1.649,0,0,0-.622-.1,1.961,1.961,0,0,0-.557.084,1.306,1.306,0,0,0-.493.276,1.394,1.394,0,0,0-.353.511,2.057,2.057,0,0,0-.134.785Z" transform="translate(-127.682 -50.838)" fill="#fff"/>
  <path id="Path_90" data-name="Path 90" d="M226.062,87.51a1.179,1.179,0,0,0-.247-.855,1.269,1.269,0,0,0-1.007-.326,1.45,1.45,0,0,0-.7.165,1.023,1.023,0,0,0-.445.475,1.612,1.612,0,0,0-.078.283c-.023.12-.045.258-.063.413s-.033.324-.043.507-.013.368-.013.551c0,.25.007.512.022.788a2.641,2.641,0,0,0,.141.755,1.265,1.265,0,0,0,.387.569,1.145,1.145,0,0,0,.761.227,1.793,1.793,0,0,0,.67-.1.917.917,0,0,0,.381-.264.9.9,0,0,0,.182-.386,2.819,2.819,0,0,0,.063-.475h.848a1.56,1.56,0,0,1-.184.905,1.616,1.616,0,0,1-.515.535,1.713,1.713,0,0,1-.648.253,3.373,3.373,0,0,1-.6.061,3.111,3.111,0,0,1-1.395-.254,1.651,1.651,0,0,1-.719-.661,2.2,2.2,0,0,1-.261-.922c-.023-.343-.034-.687-.034-1.031,0-.14,0-.293.006-.464s.013-.338.027-.508.035-.33.065-.485a1.571,1.571,0,0,1,.113-.385,1.626,1.626,0,0,1,.845-.838,3.261,3.261,0,0,1,1.3-.244,2.423,2.423,0,0,1,1.481.42,1.385,1.385,0,0,1,.507,1.291Z" transform="translate(-131.466 -50.838)" fill="#fff"/>
  <path id="Path_91" data-name="Path 91" d="M226.062,87.51a1.179,1.179,0,0,0-.247-.855,1.269,1.269,0,0,0-1.007-.326,1.45,1.45,0,0,0-.7.165,1.023,1.023,0,0,0-.445.475,1.612,1.612,0,0,0-.078.283c-.023.12-.045.258-.063.413s-.033.324-.043.507-.013.368-.013.551c0,.25.007.512.022.788a2.641,2.641,0,0,0,.141.755,1.265,1.265,0,0,0,.387.569,1.145,1.145,0,0,0,.761.227,1.793,1.793,0,0,0,.67-.1.917.917,0,0,0,.381-.264.9.9,0,0,0,.182-.386,2.819,2.819,0,0,0,.063-.475h.848a1.56,1.56,0,0,1-.184.905,1.616,1.616,0,0,1-.515.535,1.713,1.713,0,0,1-.648.253,3.373,3.373,0,0,1-.6.061,3.111,3.111,0,0,1-1.395-.254,1.651,1.651,0,0,1-.719-.661,2.2,2.2,0,0,1-.261-.922c-.023-.343-.034-.687-.034-1.031,0-.14,0-.293.006-.464s.013-.338.027-.508.035-.33.065-.485a1.571,1.571,0,0,1,.113-.385,1.626,1.626,0,0,1,.845-.838,3.261,3.261,0,0,1,1.3-.244,2.423,2.423,0,0,1,1.481.42,1.385,1.385,0,0,1,.507,1.291Z" transform="translate(-131.466 -50.838)" fill="#fff"/>
  <path id="Path_92" data-name="Path 92" d="M236.594,85.98v5.572h-.735v-.619h-.027a2.769,2.769,0,0,1-.783.54,2.44,2.44,0,0,1-1.008.188,2.469,2.469,0,0,1-.909-.144,1.505,1.505,0,0,1-.578-.385,1.347,1.347,0,0,1-.3-.558,2.492,2.492,0,0,1-.087-.656V85.98h.847v3.829c0,.037,0,.128.013.27a1.315,1.315,0,0,0,.122.447,1.045,1.045,0,0,0,1.05.608,1.713,1.713,0,0,0,.72-.138,1.59,1.59,0,0,0,.479-.332,1.273,1.273,0,0,0,.267-.4.959.959,0,0,0,.085-.354V85.98Z" transform="translate(-135.203 -50.909)" fill="#fff"/>
  <path id="Path_93" data-name="Path 93" d="M236.594,85.98v5.572h-.735v-.619h-.027a2.769,2.769,0,0,1-.783.54,2.44,2.44,0,0,1-1.008.188,2.469,2.469,0,0,1-.909-.144,1.505,1.505,0,0,1-.578-.385,1.347,1.347,0,0,1-.3-.558,2.492,2.492,0,0,1-.087-.656V85.98h.847v3.829c0,.037,0,.128.013.27a1.315,1.315,0,0,0,.122.447,1.045,1.045,0,0,0,1.05.608,1.713,1.713,0,0,0,.72-.138,1.59,1.59,0,0,0,.479-.332,1.273,1.273,0,0,0,.267-.4.959.959,0,0,0,.085-.354V85.98Z" transform="translate(-135.203 -50.909)" fill="#fff"/>
  <path id="Path_94" data-name="Path 94" d="M242.234,90.026c.018-.095.036-.187.056-.276a1.259,1.259,0,0,0,.028-.276V82.062h.846v3.022l.028.023a1.942,1.942,0,0,1,.762-.581A2.74,2.74,0,0,1,245,84.344a2.809,2.809,0,0,1,.959.144,1.732,1.732,0,0,1,.619.387,1.521,1.521,0,0,1,.353.547,2.794,2.794,0,0,1,.154.624,4.658,4.658,0,0,1,.043.639v.551c0,.308-.016.633-.049.969a2.623,2.623,0,0,1-.268.939,1.807,1.807,0,0,1-.663.711,2.266,2.266,0,0,1-1.22.282,2.008,2.008,0,0,1-1.79-.784h-.027v.673Zm.9-2.868c0,.22.007.473.02.755a2.511,2.511,0,0,0,.17.8,1.559,1.559,0,0,0,.458.636,1.357,1.357,0,0,0,.889.26,1.881,1.881,0,0,0,.916-.183,1.143,1.143,0,0,0,.479-.5,2.022,2.022,0,0,0,.183-.751c.02-.288.028-.592.028-.915s-.009-.63-.028-.921a2.075,2.075,0,0,0-.183-.762,1.167,1.167,0,0,0-.479-.513,1.835,1.835,0,0,0-.916-.188,1.312,1.312,0,0,0-.818.238,1.485,1.485,0,0,0-.465.591,2.656,2.656,0,0,0-.2.75,5.56,5.56,0,0,0-.049.706" transform="translate(-139.123 -49.384)" fill="#fff"/>
  <path id="Path_95" data-name="Path 95" d="M242.234,90.026c.018-.095.036-.187.056-.276a1.259,1.259,0,0,0,.028-.276V82.062h.846v3.022l.028.023a1.942,1.942,0,0,1,.762-.581A2.74,2.74,0,0,1,245,84.344a2.809,2.809,0,0,1,.959.144,1.732,1.732,0,0,1,.619.387,1.521,1.521,0,0,1,.353.547,2.794,2.794,0,0,1,.154.624,4.658,4.658,0,0,1,.043.639v.551c0,.308-.016.633-.049.969a2.623,2.623,0,0,1-.268.939,1.807,1.807,0,0,1-.663.711,2.266,2.266,0,0,1-1.22.282,2.008,2.008,0,0,1-1.79-.784h-.027v.673Zm.9-2.868c0,.22.007.473.02.755a2.511,2.511,0,0,0,.17.8,1.559,1.559,0,0,0,.458.636,1.357,1.357,0,0,0,.889.26,1.881,1.881,0,0,0,.916-.183,1.143,1.143,0,0,0,.479-.5,2.022,2.022,0,0,0,.183-.751c.02-.288.028-.592.028-.915s-.009-.63-.028-.921a2.075,2.075,0,0,0-.183-.762,1.167,1.167,0,0,0-.479-.513,1.835,1.835,0,0,0-.916-.188,1.312,1.312,0,0,0-.818.238,1.485,1.485,0,0,0-.465.591,2.656,2.656,0,0,0-.2.75,5.56,5.56,0,0,0-.049.706" transform="translate(-139.123 -49.384)" fill="#fff"/>
  <path id="Path_96" data-name="Path 96" d="M256.048,90.8h-.028a2.5,2.5,0,0,1-2.016.8,2.078,2.078,0,0,1-1.459-.459,1.533,1.533,0,0,1-.5-1.186,1.558,1.558,0,0,1,.191-.8,1.5,1.5,0,0,1,.515-.518,2.541,2.541,0,0,1,.733-.3,5.932,5.932,0,0,1,.846-.138c.293-.024.58-.041.867-.048s.552-.02.8-.034v-.464a1.453,1.453,0,0,0-.3-.966,1.47,1.47,0,0,0-1.143-.347,1.937,1.937,0,0,0-.994.234.776.776,0,0,0-.4.726h-.9a1.357,1.357,0,0,1,.225-.683,1.485,1.485,0,0,1,.522-.465,2.647,2.647,0,0,1,.74-.259,4.479,4.479,0,0,1,.882-.084c.178,0,.394.012.648.035a2.391,2.391,0,0,1,.727.176,1.5,1.5,0,0,1,.591.442,1.255,1.255,0,0,1,.248.828v2.8c0,.2,0,.4.006.608a7.063,7.063,0,0,0,.078.793h-.874Zm-.056-2.162c-.3.007-.631.016-.988.021a4.712,4.712,0,0,0-.994.122,1.8,1.8,0,0,0-.761.369.954.954,0,0,0-.3.768,1.151,1.151,0,0,0,.311.811,1.261,1.261,0,0,0,.972.337,2,2,0,0,0,.684-.117,1.887,1.887,0,0,0,.557-.315,1.6,1.6,0,0,0,.381-.453,1.08,1.08,0,0,0,.14-.529Z" transform="translate(-142.942 -50.838)" fill="#fff"/>
  <path id="Path_97" data-name="Path 97" d="M256.048,90.8h-.028a2.5,2.5,0,0,1-2.016.8,2.078,2.078,0,0,1-1.459-.459,1.533,1.533,0,0,1-.5-1.186,1.558,1.558,0,0,1,.191-.8,1.5,1.5,0,0,1,.515-.518,2.541,2.541,0,0,1,.733-.3,5.932,5.932,0,0,1,.846-.138c.293-.024.58-.041.867-.048s.552-.02.8-.034v-.464a1.453,1.453,0,0,0-.3-.966,1.47,1.47,0,0,0-1.143-.347,1.937,1.937,0,0,0-.994.234.776.776,0,0,0-.4.726h-.9a1.357,1.357,0,0,1,.225-.683,1.485,1.485,0,0,1,.522-.465,2.647,2.647,0,0,1,.74-.259,4.479,4.479,0,0,1,.882-.084c.178,0,.394.012.648.035a2.391,2.391,0,0,1,.727.176,1.5,1.5,0,0,1,.591.442,1.255,1.255,0,0,1,.248.828v2.8c0,.2,0,.4.006.608a7.063,7.063,0,0,0,.078.793h-.874Zm-.056-2.162c-.3.007-.631.016-.988.021a4.712,4.712,0,0,0-.994.122,1.8,1.8,0,0,0-.761.369.954.954,0,0,0-.3.768,1.151,1.151,0,0,0,.311.811,1.261,1.261,0,0,0,.972.337,2,2,0,0,0,.684-.117,1.887,1.887,0,0,0,.557-.315,1.6,1.6,0,0,0,.381-.453,1.08,1.08,0,0,0,.14-.529Z" transform="translate(-142.942 -50.838)" fill="#fff"/>
  <path id="Path_98" data-name="Path 98" d="M261.787,85.6v-.531h1.142V83.92l.847-.288v1.433h1.437V85.6h-1.437v3.576a2.908,2.908,0,0,0,.027.452.65.65,0,0,0,.106.281.409.409,0,0,0,.234.145,1.812,1.812,0,0,0,.407.038c.142,0,.264,0,.368-.006a2.156,2.156,0,0,0,.3-.029v.575q-.38.033-.8.034a1.779,1.779,0,0,1-1.169-.282,1.023,1.023,0,0,1-.311-.8V85.6Z" transform="translate(-146.735 -49.995)" fill="#fff"/>
  <path id="Path_99" data-name="Path 99" d="M261.787,85.6v-.531h1.142V83.92l.847-.288v1.433h1.437V85.6h-1.437v3.576a2.908,2.908,0,0,0,.027.452.65.65,0,0,0,.106.281.409.409,0,0,0,.234.145,1.812,1.812,0,0,0,.407.038c.142,0,.264,0,.368-.006a2.156,2.156,0,0,0,.3-.029v.575q-.38.033-.8.034a1.779,1.779,0,0,1-1.169-.282,1.023,1.023,0,0,1-.311-.8V85.6Z" transform="translate(-146.735 -49.995)" fill="#fff"/>
  <path id="Path_100" data-name="Path 100" d="M269.542,82.06h1.044V82.9h-1.044Zm.1,2.394h.846v5.571h-.846Z" transform="translate(-149.754 -49.383)" fill="#fff"/>
  <path id="Path_101" data-name="Path 101" d="M269.542,82.06h1.044V82.9h-1.044Zm.1,2.394h.846v5.571h-.846Z" transform="translate(-149.754 -49.383)" fill="#fff"/>
  <path id="Path_102" data-name="Path 102" d="M276.521,91.592a2.518,2.518,0,0,1-1.855-.6,2.294,2.294,0,0,1-.6-1.693v-1.2a2.293,2.293,0,0,1,.6-1.693,3.153,3.153,0,0,1,3.708,0,2.3,2.3,0,0,1,.6,1.693v1.2a2.3,2.3,0,0,1-.6,1.693,2.516,2.516,0,0,1-1.854.6m0-5.263a1.8,1.8,0,0,0-.838.166,1.158,1.158,0,0,0-.488.475,2.107,2.107,0,0,0-.225.744,8.615,8.615,0,0,0,0,1.964,2.111,2.111,0,0,0,.225.744,1.148,1.148,0,0,0,.488.475,2.2,2.2,0,0,0,1.678,0,1.143,1.143,0,0,0,.484-.475,2.084,2.084,0,0,0,.227-.744,8.518,8.518,0,0,0,0-1.964,2.08,2.08,0,0,0-.227-.744,1.153,1.153,0,0,0-.484-.475,1.812,1.812,0,0,0-.839-.166" transform="translate(-151.515 -50.838)" fill="#fff"/>
  <path id="Path_103" data-name="Path 103" d="M276.521,91.592a2.518,2.518,0,0,1-1.855-.6,2.294,2.294,0,0,1-.6-1.693v-1.2a2.293,2.293,0,0,1,.6-1.693,3.153,3.153,0,0,1,3.708,0,2.3,2.3,0,0,1,.6,1.693v1.2a2.3,2.3,0,0,1-.6,1.693,2.516,2.516,0,0,1-1.854.6m0-5.263a1.8,1.8,0,0,0-.838.166,1.158,1.158,0,0,0-.488.475,2.107,2.107,0,0,0-.225.744,8.615,8.615,0,0,0,0,1.964,2.111,2.111,0,0,0,.225.744,1.148,1.148,0,0,0,.488.475,2.2,2.2,0,0,0,1.678,0,1.143,1.143,0,0,0,.484-.475,2.084,2.084,0,0,0,.227-.744,8.518,8.518,0,0,0,0-1.964,2.08,2.08,0,0,0-.227-.744,1.153,1.153,0,0,0-.484-.475,1.812,1.812,0,0,0-.839-.166" transform="translate(-151.515 -50.838)" fill="#fff"/>
  <path id="Path_104" data-name="Path 104" d="M285.464,91.481h-.845V85.91h.845v.684h.029a2.521,2.521,0,0,1,.726-.573,2.078,2.078,0,0,1,.994-.223,2.64,2.64,0,0,1,1.05.173,1.444,1.444,0,0,1,.585.431,1.3,1.3,0,0,1,.254.568,3.287,3.287,0,0,1,.057.584v3.927h-.846V87.587a1.785,1.785,0,0,0-.063-.469,1.017,1.017,0,0,0-.219-.4,1.112,1.112,0,0,0-.409-.284,1.639,1.639,0,0,0-.621-.1,1.953,1.953,0,0,0-.556.084,1.307,1.307,0,0,0-.494.276,1.408,1.408,0,0,0-.353.511,2.056,2.056,0,0,0-.134.785Z" transform="translate(-155.623 -50.838)" fill="#fff"/>
  <path id="Path_105" data-name="Path 105" d="M285.464,91.481h-.845V85.91h.845v.684h.029a2.521,2.521,0,0,1,.726-.573,2.078,2.078,0,0,1,.994-.223,2.64,2.64,0,0,1,1.05.173,1.444,1.444,0,0,1,.585.431,1.3,1.3,0,0,1,.254.568,3.287,3.287,0,0,1,.057.584v3.927h-.846V87.587a1.785,1.785,0,0,0-.063-.469,1.017,1.017,0,0,0-.219-.4,1.112,1.112,0,0,0-.409-.284,1.639,1.639,0,0,0-.621-.1,1.953,1.953,0,0,0-.556.084,1.307,1.307,0,0,0-.494.276,1.408,1.408,0,0,0-.353.511,2.056,2.056,0,0,0-.134.785Z" transform="translate(-155.623 -50.838)" fill="#fff"/>
  <path id="Path_106" data-name="Path 106" d="M302.974,90.08a4.535,4.535,0,0,1-1.282-.155,2.4,2.4,0,0,1-.867-.434,1.917,1.917,0,0,1-.531-.667,3.648,3.648,0,0,1-.275-.849,5.854,5.854,0,0,1-.105-.977c-.01-.343-.015-.693-.015-1.053s0-.712.015-1.054a5.832,5.832,0,0,1,.105-.977,3.658,3.658,0,0,1,.275-.85,1.922,1.922,0,0,1,.531-.667,2.436,2.436,0,0,1,.867-.436,4.555,4.555,0,0,1,1.282-.156,3.241,3.241,0,0,1,1.439.26,1.906,1.906,0,0,1,.746.624,1.7,1.7,0,0,1,.282.762c.027.264.042.485.042.661h-.9a2.843,2.843,0,0,0-.071-.64,1.449,1.449,0,0,0-.245-.545,1.245,1.245,0,0,0-.494-.38,1.951,1.951,0,0,0-.8-.144,2.515,2.515,0,0,0-1.24.253,1.555,1.555,0,0,0-.648.723,3.149,3.149,0,0,0-.248,1.12q-.035.651-.035,1.446t.035,1.445a3.152,3.152,0,0,0,.248,1.121,1.565,1.565,0,0,0,.648.722,2.5,2.5,0,0,0,1.24.253,1.762,1.762,0,0,0,.748-.144,1.311,1.311,0,0,0,.5-.392,1.67,1.67,0,0,0,.281-.584,2.758,2.758,0,0,0,.093-.722h.958a4.417,4.417,0,0,1-.064.623,2.129,2.129,0,0,1-.324.812,2.2,2.2,0,0,1-.776.7,2.85,2.85,0,0,1-1.418.3" transform="translate(-161.572 -49.284)" fill="#fff"/>
  <path id="Path_107" data-name="Path 107" d="M302.974,90.08a4.535,4.535,0,0,1-1.282-.155,2.4,2.4,0,0,1-.867-.434,1.917,1.917,0,0,1-.531-.667,3.648,3.648,0,0,1-.275-.849,5.854,5.854,0,0,1-.105-.977c-.01-.343-.015-.693-.015-1.053s0-.712.015-1.054a5.832,5.832,0,0,1,.105-.977,3.658,3.658,0,0,1,.275-.85,1.922,1.922,0,0,1,.531-.667,2.436,2.436,0,0,1,.867-.436,4.555,4.555,0,0,1,1.282-.156,3.241,3.241,0,0,1,1.439.26,1.906,1.906,0,0,1,.746.624,1.7,1.7,0,0,1,.282.762c.027.264.042.485.042.661h-.9a2.843,2.843,0,0,0-.071-.64,1.449,1.449,0,0,0-.245-.545,1.245,1.245,0,0,0-.494-.38,1.951,1.951,0,0,0-.8-.144,2.515,2.515,0,0,0-1.24.253,1.555,1.555,0,0,0-.648.723,3.149,3.149,0,0,0-.248,1.12q-.035.651-.035,1.446t.035,1.445a3.152,3.152,0,0,0,.248,1.121,1.565,1.565,0,0,0,.648.722,2.5,2.5,0,0,0,1.24.253,1.762,1.762,0,0,0,.748-.144,1.311,1.311,0,0,0,.5-.392,1.67,1.67,0,0,0,.281-.584,2.758,2.758,0,0,0,.093-.722h.958a4.417,4.417,0,0,1-.064.623,2.129,2.129,0,0,1-.324.812,2.2,2.2,0,0,1-.776.7,2.85,2.85,0,0,1-1.418.3" transform="translate(-161.572 -49.284)" fill="#fff"/>
  <path id="Path_108" data-name="Path 108" d="M312.081,88.834v.431a3.079,3.079,0,0,0,.063.606,1.6,1.6,0,0,0,.241.584,1.37,1.37,0,0,0,.486.438,2.114,2.114,0,0,0,2.01-.19,1.153,1.153,0,0,0,.374-.92h.887a2.175,2.175,0,0,1-.225.849,1.545,1.545,0,0,1-.5.558,2.075,2.075,0,0,1-.754.308,4.861,4.861,0,0,1-1.875.007,2.215,2.215,0,0,1-.783-.319,1.713,1.713,0,0,1-.556-.636,2.2,2.2,0,0,1-.212-1.031V88.15a2.286,2.286,0,0,1,.628-1.781,2.632,2.632,0,0,1,1.827-.569,3.348,3.348,0,0,1,1.416.243,1.626,1.626,0,0,1,.733.657,2.224,2.224,0,0,1,.267.966c.023.368.035.757.035,1.17ZM315.3,88.3a4.783,4.783,0,0,0-.065-.828,1.646,1.646,0,0,0-.231-.624,1.05,1.05,0,0,0-.487-.392,2.646,2.646,0,0,0-1.65,0,1.047,1.047,0,0,0-.487.392,1.678,1.678,0,0,0-.233.624,4.8,4.8,0,0,0-.063.828Z" transform="translate(-165.985 -50.838)" fill="#fff"/>
  <path id="Path_109" data-name="Path 109" d="M312.081,88.834v.431a3.079,3.079,0,0,0,.063.606,1.6,1.6,0,0,0,.241.584,1.37,1.37,0,0,0,.486.438,2.114,2.114,0,0,0,2.01-.19,1.153,1.153,0,0,0,.374-.92h.887a2.175,2.175,0,0,1-.225.849,1.545,1.545,0,0,1-.5.558,2.075,2.075,0,0,1-.754.308,4.861,4.861,0,0,1-1.875.007,2.215,2.215,0,0,1-.783-.319,1.713,1.713,0,0,1-.556-.636,2.2,2.2,0,0,1-.212-1.031V88.15a2.286,2.286,0,0,1,.628-1.781,2.632,2.632,0,0,1,1.827-.569,3.348,3.348,0,0,1,1.416.243,1.626,1.626,0,0,1,.733.657,2.224,2.224,0,0,1,.267.966c.023.368.035.757.035,1.17ZM315.3,88.3a4.783,4.783,0,0,0-.065-.828,1.646,1.646,0,0,0-.231-.624,1.05,1.05,0,0,0-.487-.392,2.646,2.646,0,0,0-1.65,0,1.047,1.047,0,0,0-.487.392,1.678,1.678,0,0,0-.233.624,4.8,4.8,0,0,0-.063.828Z" transform="translate(-165.985 -50.838)" fill="#fff"/>
  <path id="Path_110" data-name="Path 110" d="M322.631,91.481h-.846V85.91h.846v.684h.028a2.545,2.545,0,0,1,.727-.573,2.072,2.072,0,0,1,.994-.223,2.656,2.656,0,0,1,1.052.173,1.456,1.456,0,0,1,.584.431,1.311,1.311,0,0,1,.253.568,3.228,3.228,0,0,1,.057.584v3.927h-.846V87.587a1.759,1.759,0,0,0-.064-.469,1.008,1.008,0,0,0-.218-.4,1.112,1.112,0,0,0-.409-.284,1.636,1.636,0,0,0-.62-.1,1.965,1.965,0,0,0-.558.084,1.293,1.293,0,0,0-.493.276,1.386,1.386,0,0,0-.352.511,2.033,2.033,0,0,0-.135.785Z" transform="translate(-170.092 -50.838)" fill="#fff"/>
  <path id="Path_111" data-name="Path 111" d="M322.631,91.481h-.846V85.91h.846v.684h.028a2.545,2.545,0,0,1,.727-.573,2.072,2.072,0,0,1,.994-.223,2.656,2.656,0,0,1,1.052.173,1.456,1.456,0,0,1,.584.431,1.311,1.311,0,0,1,.253.568,3.228,3.228,0,0,1,.057.584v3.927h-.846V87.587a1.759,1.759,0,0,0-.064-.469,1.008,1.008,0,0,0-.218-.4,1.112,1.112,0,0,0-.409-.284,1.636,1.636,0,0,0-.62-.1,1.965,1.965,0,0,0-.558.084,1.293,1.293,0,0,0-.493.276,1.386,1.386,0,0,0-.352.511,2.033,2.033,0,0,0-.135.785Z" transform="translate(-170.092 -50.838)" fill="#fff"/>
  <path id="Path_112" data-name="Path 112" d="M331,85.6v-.531h1.142V83.92l.846-.288v1.433h1.438V85.6h-1.438v3.576a3.046,3.046,0,0,0,.028.452.658.658,0,0,0,.106.281.413.413,0,0,0,.233.145,1.832,1.832,0,0,0,.409.038c.141,0,.263,0,.368-.006a2.147,2.147,0,0,0,.294-.029v.575c-.253.022-.521.034-.8.034a1.781,1.781,0,0,1-1.17-.282,1.022,1.022,0,0,1-.311-.8V85.6Z" transform="translate(-173.678 -49.995)" fill="#fff"/>
  <path id="Path_113" data-name="Path 113" d="M331,85.6v-.531h1.142V83.92l.846-.288v1.433h1.438V85.6h-1.438v3.576a3.046,3.046,0,0,0,.028.452.658.658,0,0,0,.106.281.413.413,0,0,0,.233.145,1.832,1.832,0,0,0,.409.038c.141,0,.263,0,.368-.006a2.147,2.147,0,0,0,.294-.029v.575c-.253.022-.521.034-.8.034a1.781,1.781,0,0,1-1.17-.282,1.022,1.022,0,0,1-.311-.8V85.6Z" transform="translate(-173.678 -49.995)" fill="#fff"/>
  <path id="Path_114" data-name="Path 114" d="M339,88.834v.431a3.084,3.084,0,0,0,.064.606,1.613,1.613,0,0,0,.239.584,1.394,1.394,0,0,0,.488.438,2.112,2.112,0,0,0,2.009-.19,1.154,1.154,0,0,0,.373-.92h.89a2.186,2.186,0,0,1-.226.849,1.56,1.56,0,0,1-.5.558,2.088,2.088,0,0,1-.754.308,4.861,4.861,0,0,1-1.875.007,2.187,2.187,0,0,1-.783-.319,1.688,1.688,0,0,1-.557-.636,2.209,2.209,0,0,1-.213-1.031V88.15a2.286,2.286,0,0,1,.629-1.781,2.628,2.628,0,0,1,1.825-.569,3.348,3.348,0,0,1,1.416.243,1.628,1.628,0,0,1,.734.657,2.216,2.216,0,0,1,.267.966c.025.368.037.757.037,1.17Zm3.214-.529a4.857,4.857,0,0,0-.063-.828,1.627,1.627,0,0,0-.233-.624,1.052,1.052,0,0,0-.486-.392,2.644,2.644,0,0,0-1.649,0,1.049,1.049,0,0,0-.487.392,1.667,1.667,0,0,0-.233.624A4.794,4.794,0,0,0,339,88.3Z" transform="translate(-176.463 -50.838)" fill="#fff"/>
  <path id="Path_115" data-name="Path 115" d="M339,88.834v.431a3.084,3.084,0,0,0,.064.606,1.613,1.613,0,0,0,.239.584,1.394,1.394,0,0,0,.488.438,2.112,2.112,0,0,0,2.009-.19,1.154,1.154,0,0,0,.373-.92h.89a2.186,2.186,0,0,1-.226.849,1.56,1.56,0,0,1-.5.558,2.088,2.088,0,0,1-.754.308,4.861,4.861,0,0,1-1.875.007,2.187,2.187,0,0,1-.783-.319,1.688,1.688,0,0,1-.557-.636,2.209,2.209,0,0,1-.213-1.031V88.15a2.286,2.286,0,0,1,.629-1.781,2.628,2.628,0,0,1,1.825-.569,3.348,3.348,0,0,1,1.416.243,1.628,1.628,0,0,1,.734.657,2.216,2.216,0,0,1,.267.966c.025.368.037.757.037,1.17Zm3.214-.529a4.857,4.857,0,0,0-.063-.828,1.627,1.627,0,0,0-.233-.624,1.052,1.052,0,0,0-.486-.392,2.644,2.644,0,0,0-1.649,0,1.049,1.049,0,0,0-.487.392,1.667,1.667,0,0,0-.233.624A4.794,4.794,0,0,0,339,88.3Z" transform="translate(-176.463 -50.838)" fill="#fff"/>
  <path id="Path_116" data-name="Path 116" d="M349.642,86.661h.029a1.8,1.8,0,0,1,.789-.631,2.867,2.867,0,0,1,1.17-.232v.675a2.2,2.2,0,0,0-1.445.331,1.263,1.263,0,0,0-.543,1.093v3.584H348.8V85.91h.845Z" transform="translate(-180.607 -50.838)" fill="#fff"/>
  <path id="Path_117" data-name="Path 117" d="M349.642,86.661h.029a1.8,1.8,0,0,1,.789-.631,2.867,2.867,0,0,1,1.17-.232v.675a2.2,2.2,0,0,0-1.445.331,1.263,1.263,0,0,0-.543,1.093v3.584H348.8V85.91h.845Z" transform="translate(-180.607 -50.838)" fill="#fff"/>
</svg>
