<svg xmlns="http://www.w3.org/2000/svg" width="28" height="28" viewBox="0 0 28 28"><g transform="translate(-1888.332 -5508.743)"><path d="M1669.012,7188.705a14,14,0,1,1,14-14A14.017,14.017,0,0,1,1669.012,7188.705Zm0-26.977a12.977,12.977,0,1,0,12.977,12.977A12.991,12.991,0,0,0,1669.012,7161.728Z" transform="translate(233.32 -1651.962)" fill="#fff"/><path d="M1671.193,7177.194v8.146a.212.212,0,0,0,.212.212h3.025a.213.213,0,0,0,.212-.212v-8.278h2.193a.212.212,0,0,0,.211-.195l.211-2.494a.212.212,0,0,0-.211-.23h-2.4v-1.769a.751.751,0,0,1,.751-.751h1.69a.212.212,0,0,0,.212-.212v-2.495a.212.212,0,0,0-.212-.212h-2.856a3.035,3.035,0,0,0-3.034,3.034v2.4h-1.512a.213.213,0,0,0-.213.212v2.494a.213.213,0,0,0,.213.213h1.512Z" transform="translate(228.739 -1654.497)" fill="#fff" fill-rule="evenodd"/></g></svg>