<svg xmlns="http://www.w3.org/2000/svg" xmlns:xlink="http://www.w3.org/1999/xlink" width="183.949" height="210.693" viewBox="0 0 183.949 210.693"><defs><linearGradient id="a" x1="12.071" y1="5.484" x2="12.644" y2="4.618" gradientUnits="objectBoundingBox"><stop offset="0" stop-color="#f9fafb"/><stop offset="1" stop-color="#eee"/></linearGradient><linearGradient id="b" x1="11.727" y1="5.429" x2="12.29" y2="4.563" gradientUnits="objectBoundingBox"><stop offset="0" stop-color="#e0e0e0"/><stop offset="1" stop-color="#f9fafb"/></linearGradient></defs><g transform="translate(-499 -468.004)"><g transform="translate(-137.148 167.805)"><path d="M614.027,2546.68l-86.452,49.913a5.524,5.524,0,0,0-2.762,4.784V2701.2a5.524,5.524,0,0,0,2.762,4.784l86.451,49.913a5.523,5.523,0,0,0,5.524,0L706,2705.99a5.524,5.524,0,0,0,2.762-4.784V2601.38A5.524,5.524,0,0,0,706,2596.6l-86.45-49.916a5.524,5.524,0,0,0-5.523,0Z" transform="translate(111.335 -2245.745)" fill="#72bed3"/><g transform="translate(650.371 318.053)"><path d="M621.623,2573.59l-70.933,40.953a4.533,4.533,0,0,0-2.266,3.925v81.906a4.532,4.532,0,0,0,2.266,3.925l70.933,40.954a4.534,4.534,0,0,0,4.532,0l70.933-40.954a4.53,4.53,0,0,0,2.266-3.925v-81.906a4.532,4.532,0,0,0-2.266-3.925l-70.933-40.953A4.532,4.532,0,0,0,621.623,2573.59Z" transform="translate(-546.137 -2571.931)" fill="url(#a)"/><path d="M622.905,2746.46a14.748,14.748,0,0,1-7.375-1.968l-63-36.373a14.8,14.8,0,0,1-7.377-12.776V2622.6a14.8,14.8,0,0,1,7.377-12.776l63-36.373a14.794,14.794,0,0,1,14.75,0l63,36.373a14.8,14.8,0,0,1,7.377,12.776v72.744a14.8,14.8,0,0,1-7.377,12.776l-63,36.373a14.75,14.75,0,0,1-7.375,1.967Zm-5.089-169.052-63,36.372a10.211,10.211,0,0,0-5.091,8.817v72.744a10.211,10.211,0,0,0,5.091,8.817l63,36.373a10.224,10.224,0,0,0,10.181,0l63-36.373a10.211,10.211,0,0,0,5.091-8.817V2622.6a10.211,10.211,0,0,0-5.091-8.817l-63-36.372a10.211,10.211,0,0,0-10.181,0Z" transform="translate(-545.154 -2571.479)" fill="url(#b)"/></g></g></g></svg>