<svg xmlns="http://www.w3.org/2000/svg" xmlns:xlink="http://www.w3.org/1999/xlink" width="183.951" height="210.7" viewBox="0 0 183.951 210.7">
  <defs>
    <linearGradient id="linear-gradient" x1="12.071" y1="5.484" x2="12.644" y2="4.618" gradientUnits="objectBoundingBox">
      <stop offset="0" stop-color="#f9fafb"/>
      <stop offset="1" stop-color="#eee"/>
    </linearGradient>
    <linearGradient id="linear-gradient-2" x1="11.727" y1="5.429" x2="12.29" y2="4.563" gradientUnits="objectBoundingBox">
      <stop offset="0" stop-color="#e0e0e0"/>
      <stop offset="1" stop-color="#f9fafb"/>
    </linearGradient>
  </defs>
  <g id="Group_191" data-name="Group 191" transform="translate(-636.148 -300.194)">
    <path id="Path_1090" data-name="Path 1090" d="M614.027,2546.68l-86.452,49.913a5.524,5.524,0,0,0-2.762,4.784V2701.2a5.524,5.524,0,0,0,2.761,4.784l86.452,49.913a5.523,5.523,0,0,0,5.524,0L706,2705.986a5.524,5.524,0,0,0,2.762-4.784v-99.826a5.524,5.524,0,0,0-2.762-4.784L619.55,2546.68A5.523,5.523,0,0,0,614.027,2546.68Z" transform="translate(111.335 -2245.745)" fill="#e15d3f"/>
    <g id="Group_190" data-name="Group 190" transform="translate(650.371 318.053)">
      <path id="Path_498" data-name="Path 498" d="M621.623,2573.591l-70.933,40.953a4.533,4.533,0,0,0-2.266,3.925v81.906a4.532,4.532,0,0,0,2.266,3.925l70.933,40.954a4.534,4.534,0,0,0,4.532,0l70.933-40.954a4.531,4.531,0,0,0,2.266-3.925v-81.906a4.532,4.532,0,0,0-2.266-3.925l-70.933-40.953A4.532,4.532,0,0,0,621.623,2573.591Z" transform="translate(-546.137 -2571.931)" fill="url(#linear-gradient)"/>
      <path id="Path_499" data-name="Path 499" d="M622.905,2746.46a14.752,14.752,0,0,1-7.375-1.968l-63-36.373a14.8,14.8,0,0,1-7.377-12.776V2622.6a14.8,14.8,0,0,1,7.377-12.776l63-36.373a14.793,14.793,0,0,1,14.75,0l63,36.373a14.8,14.8,0,0,1,7.377,12.776v72.744a14.8,14.8,0,0,1-7.377,12.776l-63,36.373A14.754,14.754,0,0,1,622.905,2746.46Zm-5.089-169.052-63,36.372a10.211,10.211,0,0,0-5.091,8.817v72.744a10.211,10.211,0,0,0,5.091,8.817l63,36.373a10.224,10.224,0,0,0,10.181,0l63-36.373a10.211,10.211,0,0,0,5.091-8.817V2622.6a10.211,10.211,0,0,0-5.091-8.817l-63-36.372a10.211,10.211,0,0,0-10.181,0Z" transform="translate(-545.154 -2571.479)" fill="url(#linear-gradient-2)"/>
    </g>
  </g>
</svg>
