<svg xmlns="http://www.w3.org/2000/svg" width="52.222" height="39.07" viewBox="0 0 52.222 39.07"><g transform="translate(-872.302 -391.97)"><g transform="translate(880.348 391.97)"><path d="M1246.643,2605.5l-1.093,1.425-.974-.674-2.478,3.471.518.407-2.093,2.945-2.512-1.783,2.1-2.951.815.561,2.487-3.485-1.608-1.144c-.259.355-.507.687-.747,1.024-.873,1.229-1.746,2.456-2.608,3.692a.329.329,0,0,1-.444.117l-2.424-.793c-1.932-.635-3.866-1.268-5.8-1.912a.923.923,0,0,1-.419-.272q-2.064-2.61-4.109-5.235c-.524-.67-1.041-1.345-1.58-2a.314.314,0,0,1-.015-.468c1.089-1.511,2.166-3.031,3.246-4.549.025-.035.045-.073.092-.148l-3.292-2.354c.334-.478.648-.938.979-1.386a.279.279,0,0,1,.262,0q2.3,1.619,4.579,3.255,2.364,1.688,4.728,3.378,2.419,1.724,4.843,3.441,2.868,2.039,5.734,4.08c.6.431,1.206.866,1.809,1.3Z" transform="translate(-1206.149 -2589.951)" fill="#72bed3"/><path d="M1198.658,2605.709h.355q8.54,0,17.081-.005a.522.522,0,0,1,.522.274c.246.414.522.812.834,1.292h-16.822c-.431,0-.431,0-.431.441v16.761h13.516l.024.068c-.087.07-.17.147-.262.209-.428.29-.884.545-1.28.872a2.109,2.109,0,0,1-1.463.44c-3.882-.016-7.764-.009-11.646-.009h-.427Z" transform="translate(-1198.658 -2594.688)" fill="#455b65"/><path d="M1233.31,2631.592a3.509,3.509,0,1,1-3.5-3.532A3.521,3.521,0,0,1,1233.31,2631.592Z" transform="translate(-1206.968 -2601.411)" fill="#72bed3"/><path d="M1236.468,2634.859l2.854,3.609-1.493.194c-.7.093-1.411.178-2.113.287a.4.4,0,0,0-.256.223c-.394,1-.773,2.01-1.157,3.015-.038.1-.084.193-.148.339l-2.844-3.593Z" transform="translate(-1208.478 -2603.456)" fill="#72bed3"/><path d="M1221.96,2633.1l4.075,5.159-3.6,2.844c-.048-.322-.092-.577-.125-.835-.116-.907-.219-1.817-.354-2.722a.517.517,0,0,0-.293-.317c-1.009-.4-2.026-.785-3.042-1.173-.067-.026-.132-.058-.252-.111Z" transform="translate(-1204.586 -2602.926)" fill="#72bed3"/><path d="M1210.235,2621.212h15.857c.436,0,.436,0,.437.437,0,.865,0,.865-.852.865h-15.01c-.432,0-.432,0-.432-.441Z" transform="translate(-1202.14 -2599.352)" fill="#455b65"/><path d="M1210.261,2618.584V2617.3h16.274c0,.375.008.738-.008,1.1,0,.063-.1.141-.169.176a.549.549,0,0,1-.223.008h-15.874Z" transform="translate(-1202.147 -2598.176)" fill="#455b65"/><path d="M1226.541,2624.967c0,.387.01.741-.009,1.094,0,.066-.117.14-.2.183-.05.027-.127.006-.192.006h-15.867v-1.284Z" transform="translate(-1202.152 -2600.481)" fill="#455b65"/><path d="M1242.5,2629.665c-.532.068-.98.095-1.32-.4a12.281,12.281,0,0,0-1-1.132h.757v-10.313c.507.175.971.328,1.427.5a.315.315,0,0,1,.132.226,3.7,3.7,0,0,1,.006.485v10.635Z" transform="translate(-1211.145 -2598.331)" fill="#455b65"/><path d="M1219.864,2614.088c-1.444,0-2.889-.007-4.333,0-.257,0-.331-.073-.33-.33,0-.864,0-.864.858-.864,2.7,0,5.389.006,8.084-.007.331,0,.423.091.414.418-.022.778-.006.779-.78.779Z" transform="translate(-1203.633 -2596.849)" fill="#455b65"/></g><g transform="translate(904.823 401.9)"><circle cx="1.632" cy="1.632" r="1.632" fill="#455b65"/></g><g transform="translate(917.563 393.746)"><path d="M1258.046,2595.177h-1.892v-1.892a.794.794,0,1,0-1.589,0v1.892h-1.892a.794.794,0,0,0,0,1.589h1.892v1.892a.794.794,0,1,0,1.589,0v-1.892h1.892a.794.794,0,1,0,0-1.589Z" transform="translate(-1251.879 -2592.491)" fill="#72bed3"/></g><g transform="translate(872.302 412.398)"><path d="M1191.928,2621.244h-1.465v-1.465a.615.615,0,0,0-1.231,0v1.465h-1.464a.615.615,0,0,0,0,1.23h1.464v1.465a.615.615,0,0,0,1.231,0v-1.465h1.465a.615.615,0,1,0,0-1.23Z" transform="translate(-1187.153 -2619.164)" fill="#72bed3"/></g></g></svg>