<svg xmlns="http://www.w3.org/2000/svg" width="51.634" height="60.505" viewBox="0 0 51.634 60.505"><g transform="translate(0 0)"><g transform="translate(10.695 46.793)"><path d="M798.125,2905.653H780.151a1.967,1.967,0,0,0-1.967,1.967v5.777a5.968,5.968,0,0,0,5.968,5.967h9.973a5.967,5.967,0,0,0,5.968-5.967v-5.777A1.967,1.967,0,0,0,798.125,2905.653Z" transform="translate(-778.184 -2905.653)" fill="#455b65"/></g><g transform="translate(16.511)"><path d="M799.035,2855.351a.508.508,0,0,0-.438-.762h-4.762l4.037-14.62a.861.861,0,0,0-.814-1.09l-7.595-.143a.861.861,0,0,0-.872.769l-2.086,19.554a.507.507,0,0,0,.5.561h3.4l-1.555,13.244Z" transform="translate(-786.502 -2838.736)" fill="#f7971d"/></g><g transform="translate(13.601 50.016)"><path d="M797.307,2912.519H783.469a1.129,1.129,0,0,1,0-2.257h13.839a1.129,1.129,0,0,1,0,2.257Z" transform="translate(-782.34 -2910.262)" fill="#f7971d"/></g><g transform="translate(14.165 55.095)"><path d="M797.55,2918.653H783.711a.564.564,0,1,1,0-1.128H797.55a.564.564,0,1,1,0,1.128Z" transform="translate(-783.147 -2917.525)" fill="#f7971d"/></g><g transform="translate(11.639 5.579)"><circle cx="1.881" cy="1.881" r="1.881" fill="#455b65"/></g><g transform="translate(28.568 5.579)"><circle cx="1.881" cy="1.881" r="1.881" fill="#455b65"/></g><g transform="translate(2.679 9.278)"><path d="M797.6,2852.895c-.068.079-.138.154-.212.228a1.539,1.539,0,0,0,.009,2.094,15.567,15.567,0,0,1-.338,20.941,13.564,13.564,0,0,0-3.592,7.688H777.914a14.2,14.2,0,0,0-3.7-7.808,15.551,15.551,0,0,1,.117-21.193,1.547,1.547,0,0,0,.025-2.065c-.039-.048-.077-.095-.113-.144a1.509,1.509,0,0,0-2.3-.183,18.811,18.811,0,0,0-5.128,11.118,19.045,19.045,0,0,0,4.9,14.759,10.646,10.646,0,0,1,2.912,7.259,1.673,1.673,0,0,0,1.692,1.644H793.78c2.2,0,2.979-.733,2.971-1.653a10.2,10.2,0,0,1,2.776-7.1,18.954,18.954,0,0,0,.312-25.609A1.5,1.5,0,0,0,797.6,2852.895Z" transform="translate(-766.721 -2852.003)" fill="#455b65"/></g><g transform="translate(0 41.826)"><path d="M766.685,2901.229l1.331-1.33a.79.79,0,0,0-1.117-1.117l-1.331,1.33-1.33-1.33a.79.79,0,0,0-1.117,1.117l1.33,1.33-1.33,1.33a.79.79,0,1,0,1.117,1.118l1.33-1.33,1.331,1.33a.79.79,0,1,0,1.117-1.118Z" transform="translate(-762.89 -2898.55)" fill="#f7971d"/></g><g transform="translate(46.276 19.907)"><path d="M832.863,2869.883l1.331-1.33a.79.79,0,0,0-1.117-1.118l-1.331,1.33-1.33-1.33a.79.79,0,0,0-1.117,1.118l1.33,1.33-1.33,1.33a.79.79,0,1,0,1.117,1.117l1.33-1.33,1.331,1.33a.79.79,0,0,0,1.117-1.117Z" transform="translate(-829.068 -2867.204)" fill="#455b65"/></g><g transform="translate(41.021 4.68)"><path d="M826,2847.654a2.226,2.226,0,1,1-2.226-2.226A2.226,2.226,0,0,1,826,2847.654Z" transform="translate(-821.552 -2845.428)" fill="#f7971d"/></g></g></svg>