<svg xmlns="http://www.w3.org/2000/svg" viewBox="0 0 191.02 191.02"><defs><style>.cls-1{fill:#fff;}</style></defs><g id="Layer_2" data-name="Layer 2"><g id="Layer_1-2" data-name="Layer 1"><path class="cls-1" d="M95.51,191A95.51,95.51,0,1,1,191,95.51,95.62,95.62,0,0,1,95.51,191Zm0-184a88.54,88.54,0,1,0,88.54,88.53A88.62,88.62,0,0,0,95.51,7Z"/><path class="cls-1" d="M56.49,76H75.26v60.31H56.49Zm9.39-30A10.87,10.87,0,1,1,55,56.87,10.87,10.87,0,0,1,65.88,46"/><path class="cls-1" d="M87,76h18v8.25h.24c2.51-4.75,8.62-9.74,17.75-9.74,19,0,22.48,12.48,22.48,28.72v33.08H126.75V107c0-7-.14-16-9.74-16-9.76,0-11.25,7.61-11.25,15.48v29.83H87Z"/></g></g></svg>