<svg xmlns="http://www.w3.org/2000/svg" width="28" height="28" viewBox="0 0 28 28"><g transform="translate(-1928.393 -5508.743)"><path d="M1727.659,7188.705a14,14,0,1,1,14-14A14.017,14.017,0,0,1,1727.659,7188.705Zm0-26.977a12.977,12.977,0,1,0,12.977,12.977A12.991,12.991,0,0,0,1727.659,7161.728Z" transform="translate(214.734 -1651.962)" fill="#ff8e31"/><circle cx="1.033" cy="1.033" r="1.033" transform="translate(1945.871 5517.271)" fill="#ff8e31"/><path d="M1732.021,7174.559a4.34,4.34,0,1,0,4.34,4.34A4.345,4.345,0,0,0,1732.021,7174.559Zm0,7.12a2.78,2.78,0,1,1,2.78-2.779A2.783,2.783,0,0,1,1732.021,7181.679Z" transform="translate(210.29 -1656.353)" fill="#ff8e31"/><path d="M1733.359,7185.636h-7.036a5.3,5.3,0,0,1-5.293-5.293v-7.036a5.3,5.3,0,0,1,5.293-5.293h7.036a5.3,5.3,0,0,1,5.293,5.293v7.036A5.3,5.3,0,0,1,1733.359,7185.636Zm-7.036-15.965a3.64,3.64,0,0,0-3.635,3.636v7.036a3.64,3.64,0,0,0,3.635,3.636h7.036a3.64,3.64,0,0,0,3.635-3.636v-7.036a3.64,3.64,0,0,0-3.635-3.636Z" transform="translate(212.398 -1654.279)" fill="#ff8e31"/></g></svg>