<svg xmlns="http://www.w3.org/2000/svg" width="46.835" height="55.74" viewBox="0 0 46.835 55.74"><path d="M1349.157,2883.125c-1.412-.536-2.277-.914-2.277-1.872,0-.94.65-1.458,1.833-1.458a2.593,2.593,0,0,1,2.189,1.2.945.945,0,0,0,.787.42.987.987,0,0,0,.969-1.026,1.089,1.089,0,0,0-.164-.577,4.253,4.253,0,0,0-2.938-1.962v-.932a.875.875,0,1,0-1.748,0v.934a3.291,3.291,0,0,0-2.928,3.4c0,2.536,1.975,3.248,3.562,3.82,1.5.542,2.421.933,2.421,2.1,0,1.253-.74,1.863-2.26,1.863a2.635,2.635,0,0,1-2.41-1.431.962.962,0,0,0-.85-.525.988.988,0,0,0-.969,1.026,1.135,1.135,0,0,0,.123.514,4.338,4.338,0,0,0,3.311,2.367v.907a.875.875,0,1,0,1.748,0v-.908a3.566,3.566,0,0,0,3.308-3.813C1352.863,2884.533,1350.808,2883.753,1349.157,2883.125Zm2.943-3.07Z" transform="translate(-1338.22 -2837.072)" fill="#432563"/><g transform="translate(36.688 16.479)"><circle cx="2.537" cy="2.537" r="2.537" fill="#432563"/></g><path d="M1400.369,2890.557a2.537,2.537,0,1,1-2.537-2.536A2.537,2.537,0,0,1,1400.369,2890.557Z" transform="translate(-1353.534 -2840.687)" fill="#455b65"/><path d="M1377.923,2822.125a1.794,1.794,0,1,1-1.794-1.794A1.793,1.793,0,0,1,1377.923,2822.125Z" transform="translate(-1347.231 -2820.331)" fill="#455b65"/><circle cx="1.794" cy="1.794" r="1.794" transform="translate(0 10.037)" fill="#432563"/><g transform="translate(1.794 7.929)"><path d="M1356.474,2835.545a17.424,17.424,0,0,1,14.1,3.837,1.693,1.693,0,0,0,2.182,0l.187-.151a1.6,1.6,0,0,0,.63-1.251,1.738,1.738,0,0,0-.619-1.364,21.2,21.2,0,0,0-31.344,27.889l.711,1.084.348-1.249a4.4,4.4,0,0,1,.372-.921,4.469,4.469,0,0,0,.062-3.849h0a17.566,17.566,0,0,1,13.371-24.025Z" transform="translate(-1338.139 -2831.67)" fill="#455b65"/><path d="M1385.961,2854.16a1.736,1.736,0,0,0-.964-1.152,1.619,1.619,0,0,0-1.415.034l-.2.1a1.7,1.7,0,0,0-.934,1.958,17.56,17.56,0,0,1-12.173,21.057,17.247,17.247,0,0,1-9.954-.05,1.619,1.619,0,0,0-1.287.143,1.88,1.88,0,0,0-.872,1.251,1.7,1.7,0,0,0,1.152,2.1,20.855,20.855,0,0,0,6.05.907,21.22,21.22,0,0,0,20.6-26.346Z" transform="translate(-1344.142 -2838.043)" fill="#455b65"/></g><text transform="translate(20.923 33.418)" fill="#432563" font-size="15" font-family="NeoSans-Bold, NeoSans" font-weight="700"><tspan x="-10.335" y="0">QR</tspan></text></svg>