<svg xmlns="http://www.w3.org/2000/svg" width="39.328" height="33.668" viewBox="0 0 39.328 33.668"><g transform="translate(-651.552 -445.229)"><path d="M941.072,2607.351c2.407,0,4.7-.008,7,.006a7.327,7.327,0,0,1,1.573.14,3.29,3.29,0,0,1,2.585,3.046c.05,2.8.02,5.61.019,8.416a1.054,1.054,0,0,1-.082.259h-39.2v-.9c0-2.276.087-4.556-.022-6.827a3.733,3.733,0,0,1,4.135-4.164c2.034.094,4.076.02,6.114.02h.965c0-1.066,0-2.061,0-3.056.007-1.757.77-2.53,2.5-2.531q6,0,11.992,0a2.13,2.13,0,0,1,2.418,2.373C941.082,2605.167,941.072,2606.2,941.072,2607.351Zm-2.834-2.76H927.019v2.706h11.218Z" transform="translate(-261.386 -2156.533)" fill="#455b65"/><path d="M913.021,2629.94h14.654c0,.978,0,1.92,0,2.862,0,1.539.457,2,1.98,2.007q3.018.009,6.034,0c1.422-.006,1.9-.491,1.9-1.922,0-.949,0-1.9,0-2.917h14.638c.014.234.041.486.041.738,0,3.123.009,6.245,0,9.367a3.5,3.5,0,0,1-3.85,3.83q-15.8,0-31.6,0a3.5,3.5,0,0,1-3.845-3.835c-.008-3.1,0-6.191,0-9.287C912.981,2630.522,913,2630.264,913.021,2629.94Z" transform="translate(-261.398 -2165.007)" fill="#455b65"/></g></svg>