<svg xmlns="http://www.w3.org/2000/svg" width="28" height="28" viewBox="0 0 28 28"><g transform="translate(-1700.143 -5601.743)"><path d="M1494.527,7188.705a14,14,0,1,1,14-14A14.016,14.016,0,0,1,1494.527,7188.705Zm0-26.977a12.977,12.977,0,1,0,12.977,12.977A12.992,12.992,0,0,0,1494.527,7161.728Z" transform="translate(219.616 -1558.962)" fill="#fff"/><path d="M1487.3,7181.747v-.288a.764.764,0,0,1,.434-.291,4.921,4.921,0,0,0,3.288-2.531c.642-1.064.539-1.308-.644-1.727-.068-.023-.137-.044-.2-.071a2.53,2.53,0,0,1-.719-.4c-.53-.461-.217-1.124.408-1.275.456-.109.854.185,1.3.239.3.037.415-.062.378-.378a15.135,15.135,0,0,1-.053-2.444,4.139,4.139,0,0,1,2.133-3.509,5.386,5.386,0,0,1,5.775-.017,4.113,4.113,0,0,1,2.124,3.17,14.137,14.137,0,0,1-.007,2.767c-.031.4.05.475.446.381.492-.114.9-.368,1.415-.144a.777.777,0,0,1,.5.677.749.749,0,0,1-.279.527,2.862,2.862,0,0,1-.831.436c-.222.091-.453.16-.669.262-.447.209-.575.486-.366.928a5.129,5.129,0,0,0,3.508,3.095.832.832,0,0,1,.505.306v.288a1.33,1.33,0,0,1-.786.646,3.618,3.618,0,0,1-1.036.294.788.788,0,0,0-.837.769c-.073.494-.221.563-.725.523-.12-.01-.238-.031-.356-.053a3.2,3.2,0,0,0-2.723.579,5.725,5.725,0,0,1-.5.346,3.777,3.777,0,0,1-4.239.158c-.393-.229-.766-.494-1.148-.743a2.526,2.526,0,0,0-1.035-.38,6.663,6.663,0,0,0-1.753.107c-.3.033-.588-.052-.605-.361-.041-.746-.5-.929-1.125-1a3.234,3.234,0,0,1-.856-.266A1.259,1.259,0,0,1,1487.3,7181.747Z" transform="translate(217.47 -1561.346)" fill="#fff"/></g></svg>