<svg xmlns="http://www.w3.org/2000/svg" width="39.873" height="58.032" viewBox="0 0 39.873 58.032"><path d="M644.085,2648.811a13.414,13.414,0,0,0-5.689,6c-.071.147-.093.341-.2.441-.338.308-.71.808-1.064.8a1.469,1.469,0,0,1-1-.848,14.974,14.974,0,0,1,4.28-16.97,1.1,1.1,0,0,0,.346-1.492,26.871,26.871,0,0,1,.569-20.448,23.185,23.185,0,0,1,7.615-9.652,1.633,1.633,0,0,1,2.264.008,24.81,24.81,0,0,1,9.727,15.474,26.417,26.417,0,0,1-1,14.487,1.085,1.085,0,0,0,.449,1.467,14.889,14.889,0,0,1,4.633,16.7,1.772,1.772,0,0,1-1.112,1c-.311.042-.851-.518-1.053-.927a13.283,13.283,0,0,0-5.245-5.8c-.214-.125-.45-.213-.631-.3-.315,1.566-.529,3.087-.938,4.553a13.23,13.23,0,0,1-4.178,6.389c-1.05.928-1.434.9-2.522-.008a14.076,14.076,0,0,1-5.1-9.92C644.205,2649.5,644.148,2649.221,644.085,2648.811Zm19.6,3.048c.059-.411.143-.785.161-1.163a12.806,12.806,0,0,0-5.4-11.544c-1.25-.931-1.275-.994-.725-2.416a24.683,24.683,0,0,0,1.315-13.589,22.864,22.864,0,0,0-8.093-14.138c-.593-.483-1.049-.7-1.648-.05a37.286,37.286,0,0,0-3.714,4.008c-5.091,7.55-5.86,15.625-2.519,24.075a1.542,1.542,0,0,1-.578,2.154,12.746,12.746,0,0,0-4.958,7.2,11.643,11.643,0,0,0-.158,5.838c.317-.371.536-.6.725-.855a15.856,15.856,0,0,1,9.071-5.945,2.412,2.412,0,0,1,2.6.565c.554.585.948.349,1.489-.069a2.6,2.6,0,0,1,1.614-.656,13.332,13.332,0,0,1,7.049,2.935C661.239,2649.291,662.386,2650.582,663.69,2651.859Zm-17.541-3.919c.034.485.063.97.1,1.455a12.52,12.52,0,0,0,3.633,8.131c.457.46.834.574,1.281.018.489-.609,1.056-1.162,1.5-1.8a13.57,13.57,0,0,0,2.122-7.893c-1.085-.57-2.122-.749-3.087.271a1.473,1.473,0,0,1-2.379.069A2.348,2.348,0,0,0,646.149,2647.94Z" transform="translate(-626.078 -2602.356)" fill="#455b65"/><path d="M650.8,2631.284a5.235,5.235,0,0,1,7.389-7.418,5.31,5.31,0,0,1,.018,7.426A5.239,5.239,0,0,1,650.8,2631.284Zm1.473-5.989a3.144,3.144,0,0,0-.032,4.549,3.188,3.188,0,0,0,4.5-.012,3.24,3.24,0,0,0,.026-4.514A3.2,3.2,0,0,0,652.276,2625.3Z" transform="translate(-630.351 -2607.209)" fill="#72bed3"/><path d="M623.794,2651.935a5.235,5.235,0,0,1,7.39-7.418,5.31,5.31,0,0,1,.018,7.426A5.239,5.239,0,0,1,623.794,2651.935Zm1.473-5.989a3.144,3.144,0,0,0-.031,4.549,3.188,3.188,0,0,0,4.5-.012,3.238,3.238,0,0,0,.026-4.514A3.2,3.2,0,0,0,625.267,2645.947Z" transform="translate(-622.229 -2613.42)" fill="#72bed3"/><path d="M666.578,2605.049a2.48,2.48,0,0,1,0-3.577,2.505,2.505,0,0,1,3.586-.026,2.579,2.579,0,0,1,.009,3.607A2.544,2.544,0,0,1,666.578,2605.049Z" transform="translate(-635.337 -2600.703)" fill="#455b65"/></svg>