<svg xmlns="http://www.w3.org/2000/svg" width="60.2" height="57.83" viewBox="0 0 60.2 57.83"><g transform="translate(11.506)"><path d="M486.59,2851.823a5.419,5.419,0,0,0,2.318.343,12.18,12.18,0,0,0,.308,1.548l-1.854.785c-.427.178.323,2.373.845,2.823.141.121.978-.111,2.27-.577a12.335,12.335,0,0,0,.837,1.248l-1.418,1.432c-.327.327,1.2,2.072,1.855,2.291.176.058.863-.475,1.881-1.4a12.305,12.305,0,0,0,1.312.879c-.449,1.108-.727,1.8-.755,1.864-.176.428,1.906,1.45,2.594,1.4.185-.014.614-.771,1.2-2.014a12.348,12.348,0,0,0,1.473.293c.006,1.2.01,1.94.01,2.014,0,.463,2.314.617,2.931.309a5.445,5.445,0,0,0,.343-2.318,12.24,12.24,0,0,0,1.865-.39c.422.93.689,1.517.731,1.618.3.712,2.919-.217,2.764-.988-.023-.116-.287-.79-.717-1.847a12.457,12.457,0,0,0,1.448-1c.745.7,1.214,1.142,1.291,1.22.545.545,2.619-1.31,2.182-1.964-.066-.1-.567-.622-1.366-1.437a12.207,12.207,0,0,0,1.006-1.534c.952.358,1.554.584,1.654.625.714.293,1.911-2.217,1.257-2.653-.1-.066-.763-.356-1.814-.8a12.252,12.252,0,0,0,.324-1.727c1.02-.031,1.663-.051,1.772-.051.771,0,.926-2.778.154-2.931-.117-.024-.84-.04-1.982-.051a12.232,12.232,0,0,0-.379-1.793c.93-.422,1.517-.688,1.617-.731.712-.3-.217-2.919-.988-2.764-.116.024-.791.288-1.847.717a12.349,12.349,0,0,0-.995-1.447c.7-.745,1.143-1.214,1.219-1.292.546-.545-1.309-2.618-1.964-2.182-.1.066-.622.566-1.437,1.366a12.419,12.419,0,0,0-1.533-1.006c.358-.952.584-1.554.625-1.655.293-.713-2.217-1.911-2.653-1.255-.066.1-.356.763-.8,1.814a12.23,12.23,0,0,0-1.726-.324c-.031-1.02-.05-1.663-.05-1.772,0-.771-2.777-.926-2.931-.155-.024.117-.04.841-.051,1.982a12.169,12.169,0,0,0-1.475.3c-.467-1.1-.757-1.787-.785-1.855-.178-.427-2.373.323-2.824.845-.121.141.11.979.577,2.27a12.216,12.216,0,0,0-1.247.837c-.852-.844-1.38-1.366-1.431-1.418-.327-.327-2.073,1.2-2.292,1.855-.059.176.475.863,1.4,1.881a12.45,12.45,0,0,0-.88,1.312l-1.864-.756c-.428-.175-1.45,1.906-1.4,2.595.013.185.771.614,2.014,1.2a12.054,12.054,0,0,0-.292,1.473l-2.014.01C486.436,2848.892,486.282,2851.205,486.59,2851.823Zm14.522-11.053a9.77,9.77,0,1,1-9.77,9.77A9.77,9.77,0,0,1,501.112,2840.769Z" transform="translate(-486.43 -2835.857)" fill="#455b65"/></g><g transform="translate(30.835 23.207)"><path d="M514.232,2885.009a5.417,5.417,0,0,0,2.317.343,12.3,12.3,0,0,0,.308,1.548l-1.854.785c-.427.178.323,2.373.845,2.824.141.122.978-.11,2.27-.577a12.362,12.362,0,0,0,.836,1.247l-1.417,1.432c-.327.328,1.2,2.073,1.854,2.292.176.058.864-.475,1.882-1.4a12.187,12.187,0,0,0,1.311.88l-.755,1.864c-.176.428,1.906,1.45,2.594,1.4.185-.013.614-.77,1.2-2.014a12.253,12.253,0,0,0,1.473.293c.006,1.2.01,1.94.01,2.013,0,.463,2.315.618,2.932.309a5.442,5.442,0,0,0,.343-2.317,12.387,12.387,0,0,0,1.865-.39c.422.93.689,1.517.731,1.617.3.712,2.919-.217,2.764-.988-.024-.117-.287-.791-.718-1.847a12.434,12.434,0,0,0,1.448-1c.745.7,1.214,1.143,1.291,1.22.545.545,2.619-1.309,2.182-1.964-.066-.1-.566-.623-1.366-1.437a12.381,12.381,0,0,0,1.005-1.533c.952.358,1.554.583,1.654.625.713.293,1.911-2.218,1.256-2.654-.1-.066-.762-.356-1.814-.8a12.246,12.246,0,0,0,.324-1.727c1.021-.031,1.663-.051,1.772-.051.772,0,.926-2.777.155-2.931-.117-.023-.841-.039-1.982-.051a12.234,12.234,0,0,0-.379-1.792c.93-.423,1.517-.689,1.617-.731.712-.3-.217-2.92-.988-2.764-.117.023-.791.287-1.847.717a12.434,12.434,0,0,0-1-1.447c.7-.745,1.143-1.214,1.22-1.291.545-.545-1.309-2.619-1.964-2.182-.1.066-.622.567-1.438,1.366a12.319,12.319,0,0,0-1.533-1.005c.358-.952.584-1.554.625-1.655.293-.714-2.217-1.911-2.653-1.256-.066.1-.357.762-.8,1.814a12.117,12.117,0,0,0-1.727-.324c-.03-1.021-.05-1.663-.05-1.773,0-.771-2.777-.925-2.932-.154-.023.117-.039.841-.05,1.981a12.308,12.308,0,0,0-1.475.3c-.467-1.1-.757-1.787-.785-1.854-.178-.427-2.373.323-2.824.845-.122.141.11.978.577,2.269a12.339,12.339,0,0,0-1.247.837l-1.431-1.417c-.328-.327-2.073,1.2-2.292,1.855-.059.176.475.864,1.4,1.882a12.2,12.2,0,0,0-.88,1.311l-1.864-.755c-.428-.176-1.45,1.906-1.4,2.594.014.185.771.614,2.015,1.2a12.219,12.219,0,0,0-.293,1.473l-2.014.01C514.078,2882.078,513.924,2884.392,514.232,2885.009Zm14.522-11.053a9.771,9.771,0,1,1-9.77,9.77A9.77,9.77,0,0,1,528.754,2873.956Z" transform="translate(-514.072 -2869.043)" fill="#455b65"/></g><g transform="translate(0 28.465)"><path d="M470.136,2892.53a5.426,5.426,0,0,0,2.318.343,12.184,12.184,0,0,0,.308,1.549l-1.854.785c-.427.178.323,2.374.845,2.824.141.121.978-.111,2.27-.577a12.361,12.361,0,0,0,.837,1.248l-1.418,1.432c-.327.327,1.2,2.073,1.855,2.291.176.059.863-.475,1.881-1.4a12.335,12.335,0,0,0,1.312.879c-.449,1.108-.727,1.8-.755,1.864-.175.428,1.906,1.45,2.594,1.4.185-.014.614-.771,1.2-2.015a12.108,12.108,0,0,0,1.473.293c.006,1.2.01,1.94.01,2.014,0,.463,2.314.617,2.931.308a5.442,5.442,0,0,0,.343-2.318,12.247,12.247,0,0,0,1.866-.39c.422.93.688,1.517.73,1.618.3.712,2.919-.217,2.764-.988-.023-.116-.287-.79-.717-1.847a12.449,12.449,0,0,0,1.447-1c.745.7,1.214,1.143,1.291,1.22.545.545,2.619-1.31,2.182-1.965-.066-.1-.567-.622-1.366-1.437a12.253,12.253,0,0,0,1.006-1.534c.953.358,1.554.584,1.654.625.714.293,1.911-2.218,1.257-2.653-.1-.066-.763-.356-1.814-.8a12.233,12.233,0,0,0,.324-1.726c1.02-.031,1.663-.051,1.772-.051.771,0,.926-2.777.154-2.931-.117-.024-.84-.04-1.982-.051a12.256,12.256,0,0,0-.379-1.793c.93-.422,1.517-.688,1.617-.73.712-.3-.217-2.919-.988-2.765-.116.024-.79.288-1.847.718a12.35,12.35,0,0,0-1-1.447c.7-.745,1.143-1.214,1.22-1.292.546-.545-1.309-2.618-1.964-2.181-.1.066-.622.566-1.437,1.366a12.415,12.415,0,0,0-1.533-1.006c.358-.953.584-1.553.625-1.655.293-.713-2.217-1.911-2.653-1.256-.066.1-.356.763-.8,1.814a12.264,12.264,0,0,0-1.727-.323c-.031-1.021-.05-1.663-.05-1.772,0-.771-2.778-.926-2.931-.154-.024.116-.04.841-.05,1.981a12.2,12.2,0,0,0-1.475.3c-.467-1.1-.757-1.787-.785-1.855-.178-.427-2.373.323-2.824.846-.121.14.11.979.577,2.27a12.3,12.3,0,0,0-1.248.837c-.852-.844-1.38-1.366-1.431-1.418-.327-.327-2.073,1.2-2.292,1.855-.058.176.475.863,1.4,1.881a12.417,12.417,0,0,0-.88,1.312l-1.864-.755c-.428-.175-1.45,1.906-1.4,2.594.013.185.771.614,2.014,1.2a12.164,12.164,0,0,0-.292,1.473l-2.014.01C469.982,2889.6,469.828,2891.912,470.136,2892.53Zm14.522-11.053a9.77,9.77,0,1,1-9.77,9.77A9.77,9.77,0,0,1,484.658,2881.477Z" transform="translate(-469.976 -2876.564)" fill="#455b65"/></g><g transform="translate(20.751 6.047)"><g transform="translate(2.075)"><path d="M509.7,2852.544a.361.361,0,0,1-.362-.36v-3.956a3,3,0,1,0-6,0v3.956a.362.362,0,0,1-.723,0v-3.956a3.724,3.724,0,1,1,7.447,0v3.956A.36.36,0,0,1,509.7,2852.544Z" transform="translate(-502.618 -2844.504)" fill="#432563"/></g><g transform="translate(2.13 2.263)"><path d="M504.089,2851.212a7.322,7.322,0,0,1-1.087-.072.361.361,0,0,1,.114-.713c.042.007,4.256.632,6.116-2.51a.361.361,0,0,1,.622.368A6.461,6.461,0,0,1,504.089,2851.212Z" transform="translate(-502.697 -2847.739)" fill="#432563"/></g><g transform="translate(3.607 3.968)"><path d="M507,2854.646a2.194,2.194,0,0,1-2.191-2.191v-.717a.361.361,0,1,1,.722,0v.717a1.468,1.468,0,0,0,2.937,0v-1.916a.361.361,0,1,1,.722,0v1.916A2.193,2.193,0,0,1,507,2854.646Z" transform="translate(-504.81 -2850.178)" fill="#432563"/></g><g transform="translate(0 8.603)"><path d="M500.013,2862.673a.373.373,0,0,1-.1-.015.362.362,0,0,1-.245-.448l.645-2.2a2.953,2.953,0,0,1,2.579-2.1l.4-.885a.36.36,0,0,1,.483-.177l1.83.869a.361.361,0,0,1,.2.375l-.124.911a.361.361,0,1,1-.715-.1l.088-.65-1.259-.6-.341.752a.362.362,0,0,1-.329.213,2.223,2.223,0,0,0-2.122,1.59l-.645,2.2A.363.363,0,0,1,500.013,2862.673Z" transform="translate(-499.651 -2856.807)" fill="#432563"/></g><g transform="translate(5.438 8.603)"><path d="M513.225,2862.673a.361.361,0,0,1-.347-.26l-.645-2.2a2.223,2.223,0,0,0-2.122-1.59.361.361,0,0,1-.329-.213l-.342-.752-1.259.6.088.65a.361.361,0,0,1-.716.1l-.123-.911a.36.36,0,0,1,.2-.375l1.829-.869a.361.361,0,0,1,.484.177l.4.885a2.951,2.951,0,0,1,2.578,2.1l.645,2.2a.362.362,0,0,1-.245.448A.377.377,0,0,1,513.225,2862.673Z" transform="translate(-507.427 -2856.807)" fill="#432563"/></g><g transform="translate(5.313 10.384)"><path d="M507.734,2863.734a.361.361,0,0,1-.25-.621l.692-.664-.907-2.616a.361.361,0,0,1,.683-.236l.982,2.835a.361.361,0,0,1-.092.379l-.859.824A.359.359,0,0,1,507.734,2863.734Z" transform="translate(-507.25 -2859.353)" fill="#432563"/></g><g transform="translate(4.578 10.384)"><path d="M507.418,2863.734a.359.359,0,0,1-.25-.1l-.859-.824a.362.362,0,0,1-.091-.379l.982-2.835a.361.361,0,1,1,.682.236l-.906,2.616.692.664a.361.361,0,0,1-.25.621Z" transform="translate(-506.198 -2859.353)" fill="#432563"/></g></g><g transform="translate(8.884 35.948)"><g transform="translate(0 7.38)"><path d="M483.042,2903.684a.373.373,0,0,1-.1-.014.362.362,0,0,1-.245-.448l.645-2.2a2.952,2.952,0,0,1,2.578-2.1l.4-.886a.36.36,0,0,1,.2-.189.355.355,0,0,1,.279.012l1.829.869a.36.36,0,0,1,.2.375l-.124.912a.361.361,0,0,1-.716-.1l.088-.65-1.259-.6-.342.753a.361.361,0,0,1-.329.212,2.225,2.225,0,0,0-2.123,1.59l-.645,2.2A.362.362,0,0,1,483.042,2903.684Z" transform="translate(-482.68 -2897.818)" fill="#432563"/></g><g transform="translate(5.438 7.38)"><path d="M496.254,2903.684a.362.362,0,0,1-.347-.26l-.645-2.2a2.223,2.223,0,0,0-2.122-1.59.361.361,0,0,1-.329-.212l-.341-.753-1.259.6.088.65a.36.36,0,0,1-.309.406.364.364,0,0,1-.406-.31l-.124-.911a.361.361,0,0,1,.2-.375l1.83-.869a.361.361,0,0,1,.483.177l.4.886a2.953,2.953,0,0,1,2.579,2.1l.645,2.2a.362.362,0,0,1-.245.448A.373.373,0,0,1,496.254,2903.684Z" transform="translate(-490.456 -2897.819)" fill="#432563"/></g><g transform="translate(5.314 9.16)"><path d="M490.764,2904.747a.362.362,0,0,1-.25-.622l.692-.664-.906-2.616a.361.361,0,0,1,.682-.237l.982,2.835a.362.362,0,0,1-.091.379l-.859.824A.363.363,0,0,1,490.764,2904.747Z" transform="translate(-490.28 -2900.365)" fill="#432563"/></g><g transform="translate(4.578 9.16)"><path d="M490.448,2904.747a.36.36,0,0,1-.25-.1l-.859-.824a.361.361,0,0,1-.092-.379l.982-2.835a.361.361,0,1,1,.682.237l-.906,2.616.692.664a.362.362,0,0,1-.25.622Z" transform="translate(-489.228 -2900.365)" fill="#432563"/></g><g transform="translate(3.608)"><path d="M490.031,2894.478a2.193,2.193,0,0,1-2.191-2.191v-2.832a2.191,2.191,0,0,1,4.382,0v2.832A2.194,2.194,0,0,1,490.031,2894.478Zm0-6.49a1.471,1.471,0,0,0-1.468,1.468v2.832a1.468,1.468,0,0,0,2.936,0v-2.832A1.47,1.47,0,0,0,490.031,2887.987Z" transform="translate(-487.84 -2887.265)" fill="#432563"/></g><g transform="translate(3.608 1.83)"><path d="M488.2,2892.256a.361.361,0,0,1-.041-.72c.025,0,2.53-.3,3.408-1.506a.361.361,0,1,1,.583.426c-1.065,1.459-3.794,1.785-3.91,1.8Z" transform="translate(-487.84 -2889.882)" fill="#432563"/></g></g><g transform="translate(39.719 29.903)"><g transform="translate(0 7.38)"><path d="M527.138,2895.039a.363.363,0,0,1-.347-.463l.645-2.2a2.952,2.952,0,0,1,2.578-2.1l.4-.885a.362.362,0,0,1,.2-.19.357.357,0,0,1,.279.013l1.829.868a.36.36,0,0,1,.2.375l-.124.911a.361.361,0,1,1-.715-.1l.088-.65-1.259-.6-.342.753a.361.361,0,0,1-.329.212,2.222,2.222,0,0,0-2.122,1.59l-.645,2.205A.361.361,0,0,1,527.138,2895.039Z" transform="translate(-526.776 -2889.173)" fill="#432563"/></g><g transform="translate(5.437 7.38)"><path d="M540.35,2895.039a.361.361,0,0,1-.347-.26l-.645-2.205a2.222,2.222,0,0,0-2.122-1.59.361.361,0,0,1-.329-.212l-.341-.753-1.259.6.088.65a.361.361,0,1,1-.715.1l-.124-.911a.36.36,0,0,1,.2-.375l1.83-.868a.356.356,0,0,1,.279-.013.36.36,0,0,1,.2.19l.4.885a2.952,2.952,0,0,1,2.578,2.1l.646,2.2a.363.363,0,0,1-.347.463Z" transform="translate(-534.552 -2889.173)" fill="#432563"/></g><g transform="translate(5.314 9.159)"><path d="M534.86,2896.1a.361.361,0,0,1-.25-.622l.692-.663-.906-2.617a.361.361,0,0,1,.682-.237l.982,2.835a.362.362,0,0,1-.091.379l-.859.824A.361.361,0,0,1,534.86,2896.1Z" transform="translate(-534.375 -2891.719)" fill="#432563"/></g><g transform="translate(4.578 9.159)"><path d="M534.543,2896.1a.361.361,0,0,1-.25-.1l-.859-.824a.361.361,0,0,1-.092-.379l.982-2.835a.361.361,0,0,1,.682.237l-.906,2.617.692.663a.361.361,0,0,1-.25.622Z" transform="translate(-533.324 -2891.719)" fill="#432563"/></g><g transform="translate(3.608)"><path d="M534.126,2885.832a2.193,2.193,0,0,1-2.19-2.191v-2.83a2.191,2.191,0,0,1,4.382,0v2.83A2.193,2.193,0,0,1,534.126,2885.832Zm0-6.49a1.47,1.47,0,0,0-1.468,1.469v2.83a1.468,1.468,0,1,0,2.936,0v-2.83A1.47,1.47,0,0,0,534.126,2879.342Z" transform="translate(-531.936 -2878.62)" fill="#432563"/></g></g><g transform="translate(0 21.774)"><path d="M473.772,2869.674l1.33-1.33a.79.79,0,0,0-1.117-1.118l-1.33,1.33-1.331-1.33a.79.79,0,1,0-1.117,1.118l1.33,1.33-1.33,1.33a.79.79,0,1,0,1.117,1.117l1.331-1.33,1.33,1.33A.79.79,0,0,0,475.1,2871Z" transform="translate(-469.975 -2866.996)" fill="#432563"/></g><g transform="translate(44.298 15.944)"><path d="M537.776,2860.884a2.226,2.226,0,1,1-2.226-2.225A2.226,2.226,0,0,1,537.776,2860.884Z" transform="translate(-533.324 -2858.658)" fill="#432563"/></g></svg>