<svg xmlns="http://www.w3.org/2000/svg" width="28" height="28" viewBox="0 0 28 28"><g transform="translate(-1848.602 -5508.743)"><path d="M1610.85,7188.705a14,14,0,1,1,14-14A14.017,14.017,0,0,1,1610.85,7188.705Zm0-26.977a12.977,12.977,0,1,0,12.977,12.977A12.992,12.992,0,0,0,1610.85,7161.728Z" transform="translate(251.752 -1651.962)" fill="#fff"/><path d="M1621.523,7172.654a7.571,7.571,0,0,1-1.761.473c.266-.045.607-.527.764-.723a2.974,2.974,0,0,0,.525-1,.067.067,0,0,0-.016-.086.106.106,0,0,0-.094.008,8.569,8.569,0,0,1-1.969.752.133.133,0,0,1-.137-.037,1.679,1.679,0,0,0-.173-.175,3.488,3.488,0,0,0-.952-.583,3.32,3.32,0,0,0-1.46-.235,3.5,3.5,0,0,0-1.386.391,3.591,3.591,0,0,0-1.118.914,3.424,3.424,0,0,0-.667,1.337,3.608,3.608,0,0,0-.036,1.411c.01.079,0,.089-.068.079a10.5,10.5,0,0,1-6.754-3.438c-.078-.09-.121-.09-.186.007a3.425,3.425,0,0,0,.583,4.047c.133.125.268.25.415.365a3.457,3.457,0,0,1-1.3-.365c-.079-.05-.118-.021-.126.068a2.1,2.1,0,0,0,.022.386,3.463,3.463,0,0,0,2.134,2.761,2.072,2.072,0,0,0,.433.132,3.833,3.833,0,0,1-1.278.04c-.093-.018-.128.029-.093.118a3.594,3.594,0,0,0,2.685,2.249c.122.021.244.021.366.05-.008.011-.015.011-.022.021a4.258,4.258,0,0,1-1.834.973,6.582,6.582,0,0,1-2.786.356c-.15-.022-.181-.021-.222,0s0,.061.043.1c.19.125.383.237.58.344a9.191,9.191,0,0,0,1.862.745,9.918,9.918,0,0,0,9.629-2.251,10.1,10.1,0,0,0,2.665-7.371c0-.106.125-.165.2-.221a7.6,7.6,0,0,0,1.516-1.363c.086-.115.292-.219.292-.261v-.014C1621.8,7172.611,1621.59,7172.624,1621.523,7172.654Z" transform="translate(249.172 -1655.237)" fill="#fff"/></g></svg>