<svg xmlns="http://www.w3.org/2000/svg" width="28" height="28" viewBox="0 0 28 28"><g transform="translate(-1808.873 -5508.743)"><path d="M1552.689,7188.705a14,14,0,1,1,14-14A14.017,14.017,0,0,1,1552.689,7188.705Zm0-26.977a12.977,12.977,0,1,0,12.977,12.977A12.992,12.992,0,0,0,1552.689,7161.728Z" transform="translate(270.184 -1651.962)" fill="#fff"/><path d="M1562.884,7175.788a3.609,3.609,0,0,0-3.609-3.609h-9.229a3.609,3.609,0,0,0-3.609,3.609v4.295a3.61,3.61,0,0,0,3.609,3.609h9.229a3.61,3.61,0,0,0,3.609-3.609Zm-5.428,2.641-4.139,2.048c-.162.087-.713-.03-.713-.214v-4.2c0-.187.555-.3.718-.211l3.962,2.155C1557.45,7178.1,1557.624,7178.337,1557.456,7178.428Z" transform="translate(268.729 -1654.599)" fill="#fff"/></g></svg>